<svg width="24" height="23" viewBox="0 0 24 23" fill="none" xmlns="http://www.w3.org/2000/svg">
<g clip-path="url(#clip0_1032_3457)">
<path d="M12.2985 5.91036L9.81789 2.34241L7.17993 3.08933L3.51862 4.1273V14.9685L16.1154 22.2417V11.4005L12.2985 5.91036ZM12.9648 14.5511L10.9969 13.4142V15.6733L8.63531 14.3094V12.0504L7.1781 11.2101L6.6655 10.9136V8.20417L7.1781 8.49891L8.63531 9.33918V7.08198L10.3268 8.05955L10.7296 8.29204L10.9969 8.44584V10.703L11.1506 10.7927L12.2966 11.4536L12.9648 11.8399V14.5511Z" stroke="#DABCEB" stroke-width="0.274839" stroke-linecap="round" stroke-linejoin="round"/>
<path d="M12.9647 12.4312V14.5511L10.9967 13.4142L12.5637 12.6325L12.9647 12.4312Z" stroke="#DABCEB" stroke-width="0.274839" stroke-linecap="round" stroke-linejoin="round"/>
<path d="M12.5639 12.6326L10.9969 13.4142V15.6733L8.63715 14.3094L12.2985 12.4788L12.5639 12.6326Z" stroke="#DABCEB" stroke-width="0.274839" stroke-linecap="round" stroke-linejoin="round"/>
<path d="M12.2985 11.4536V12.4788L8.63715 14.3094V12.0504L11.1506 10.7927L12.2985 11.4536Z" stroke="#DABCEB" stroke-width="0.274839" stroke-linecap="round" stroke-linejoin="round"/>
<path d="M11.1506 10.7927L8.63715 12.0504L7.17994 11.2101L6.66553 10.9135L10.3268 9.08289L10.9969 9.46915V10.703L11.1506 10.7927Z" stroke="#DABCEB" stroke-width="0.274839" stroke-linecap="round" stroke-linejoin="round"/>
<path d="M10.3268 8.49341V9.0829L6.66553 10.9136V8.20416L7.17994 8.4989L8.63715 9.33917L10.3268 8.49341Z" stroke="#DABCEB" stroke-width="0.274839" stroke-linecap="round" stroke-linejoin="round"/>
<path d="M10.7314 8.29204L10.3268 8.49341L8.63715 9.33917V7.08197L10.3268 8.05954L10.7314 8.29204Z" stroke="#DABCEB" stroke-width="0.274839" stroke-linecap="round" stroke-linejoin="round"/>
<path d="M13.4792 0.511719L9.81789 2.34237L7.17993 3.0893L3.51862 4.12727L7.17993 2.29661L13.4792 0.511719Z" stroke="#DABCEB" stroke-width="0.274839" stroke-linecap="round" stroke-linejoin="round"/>
<path d="M19.7746 9.56982V20.411C19.2181 20.5062 16.1133 22.2416 16.1133 22.2416V11.4005L16.6259 11.1442L19.7746 9.56982Z" stroke="#DABCEB" stroke-width="0.274839" stroke-linecap="round" stroke-linejoin="round"/>
<path d="M19.775 9.56981L16.6263 11.1442L16.1137 11.4005L12.2986 5.91033L9.81805 2.34237L13.4794 0.511719L19.775 9.56981Z" stroke="#DABCEB" stroke-width="0.274839" stroke-linecap="round" stroke-linejoin="round"/>
</g>
<defs>
<clipPath id="clip0_1032_3457">
<rect width="22.7002" height="22.7002" fill="white" transform="translate(0.315002 0.0617676)"/>
</clipPath>
</defs>
</svg>
