<svg width="28" height="29" viewBox="0 0 28 29" fill="none" xmlns="http://www.w3.org/2000/svg">
<path d="M9.68391 8.62866C9.68391 9.51571 9.40848 10.1152 8.85964 10.4291C8.30878 10.743 7.64855 10.6762 6.87693 10.2306C6.10531 9.78507 5.44306 9.08634 4.89422 8.13853C4.34335 7.19071 4.06995 6.2733 4.06995 5.38827C4.06995 4.50324 4.34335 3.90172 4.89422 3.58781L5.03801 3.51492C5.55647 3.28809 6.17215 3.37921 6.87693 3.78628C7.54526 4.17108 8.12853 4.74625 8.62876 5.50774C8.70775 5.62723 8.78471 5.75079 8.85964 5.87838C8.97913 6.08293 9.08444 6.28545 9.17558 6.48595C9.51379 7.21909 9.68391 7.934 9.68391 8.62866Z" stroke="#DABCEB" stroke-width="0.274839" stroke-linecap="round" stroke-linejoin="round"/>
<path d="M22.1981 25.5496L22.2285 25.6021L23.2107 25.0433L22.1981 25.5496Z" stroke="#DABCEB" stroke-width="0.274839" stroke-linecap="round" stroke-linejoin="round"/>
<path d="M9.68391 17.4891C9.68391 18.3761 9.40848 18.9756 8.85964 19.2875C8.30878 19.6014 7.64855 19.5366 6.87693 19.089C6.10531 18.6435 5.44306 17.9468 4.89422 16.999C4.34335 16.0512 4.06995 15.1337 4.06995 14.2467C4.06995 13.3596 4.34335 12.7622 4.89422 12.4483L5.02383 12.3835C5.54635 12.1465 6.16405 12.2356 6.87693 12.6467C7.54323 13.0315 8.1265 13.6026 8.62674 14.3621C8.70775 14.4816 8.78471 14.6072 8.85964 14.7368C8.97913 14.9413 9.08444 15.1459 9.1776 15.3484C9.51379 16.0815 9.68391 16.7944 9.68391 17.4891Z" stroke="#DABCEB" stroke-width="0.274839" stroke-linecap="round" stroke-linejoin="round"/>
<path d="M17.4065 13.0862C17.4065 13.9733 17.1311 14.5728 16.5802 14.8867C16.0314 15.2006 15.3691 15.1338 14.5975 14.6882C14.152 14.431 13.7449 14.0907 13.3722 13.6654C13.1009 13.3556 12.8477 12.9991 12.6148 12.5961C12.4285 12.2761 12.2746 11.9582 12.153 11.6442C11.91 11.0306 11.7905 10.4311 11.7905 9.84584C11.7905 9.47927 11.8371 9.1613 11.9323 8.89397C11.9687 8.78461 12.0133 8.68537 12.068 8.59424C12.2017 8.36133 12.3819 8.17906 12.6148 8.0454L12.7444 7.98061C12.9652 7.88137 13.2021 7.83882 13.4573 7.85705C13.8056 7.8773 14.1844 8.00692 14.5975 8.24387C15.2638 8.62867 15.8491 9.20383 16.3493 9.9633C16.4283 10.0828 16.5053 10.2063 16.5802 10.3359C16.6997 10.5405 16.805 10.743 16.8962 10.9435C17.2364 11.6767 17.4065 12.3916 17.4065 13.0862Z" stroke="#DABCEB" stroke-width="0.274839" stroke-linecap="round" stroke-linejoin="round"/>
<path d="M13.7347 6.6034C13.7347 6.96997 13.6881 7.28589 13.5929 7.55525L12.7443 7.98057C12.6998 7.99879 12.6572 8.02107 12.6147 8.04537C12.3818 8.17904 12.2016 8.36129 12.0679 8.59419C12.0132 8.68533 11.9686 8.78459 11.9322 8.89193L8.8599 10.4291C9.40874 10.1152 9.68418 9.5157 9.68418 8.62864C9.68418 7.93399 9.51406 7.21908 9.17584 6.48594C9.08471 6.28544 8.97939 6.08292 8.8599 5.87837C8.78497 5.75078 8.70801 5.62722 8.62903 5.50773C8.12879 4.74624 7.54552 4.17107 6.87719 3.78627C6.17241 3.3792 5.55673 3.28808 5.03827 3.51491L8.94496 1.56257C9.4938 1.24866 10.1561 1.31548 10.9277 1.76104C11.6993 2.20659 12.3595 2.90532 12.9104 3.85313C13.4592 4.80094 13.7347 5.71837 13.7347 6.6034Z" stroke="#DABCEB" stroke-width="0.274839" stroke-linecap="round" stroke-linejoin="round"/>
<path d="M13.7344 15.4638C13.7344 15.8304 13.6878 16.1484 13.5926 16.4157L12.7663 16.8309L12.6144 16.9058C12.3835 17.0374 12.2013 17.2197 12.0676 17.4526C12.0149 17.5438 11.9704 17.643 11.9319 17.7504L8.85962 19.2875C9.40846 18.9756 9.68389 18.3761 9.68389 17.4891C9.68389 16.7944 9.51377 16.0815 9.17758 15.3484C9.08442 15.1459 8.97911 14.9413 8.85962 14.7368C8.78468 14.6072 8.70773 14.4816 8.62672 14.3621C8.12648 13.6026 7.54321 13.0315 6.87691 12.6467C6.16402 12.2356 5.54632 12.1465 5.0238 12.3835L8.94468 10.423C9.49352 10.1091 10.1558 10.1759 10.9274 10.6215C11.3729 10.8787 11.78 11.2189 12.1527 11.6442C12.2742 11.9581 12.4281 12.2761 12.6144 12.5961C12.8473 12.9991 13.1005 13.3556 13.3719 13.6654C13.6149 14.2791 13.7344 14.8785 13.7344 15.4638Z" stroke="#DABCEB" stroke-width="0.274839" stroke-linecap="round" stroke-linejoin="round"/>
<path d="M21.4567 11.061C21.4567 11.948 21.1813 12.5475 20.6304 12.8615L16.5799 14.8867C17.1308 14.5728 17.4062 13.9733 17.4062 13.0862C17.4062 12.3916 17.2361 11.6767 16.8959 10.9435C16.8047 10.743 16.6994 10.5405 16.5799 10.336C16.505 10.2063 16.4281 10.0828 16.3491 9.96331C15.8488 9.20385 15.2635 8.62868 14.5972 8.24388C14.1841 8.00693 13.8054 7.87731 13.457 7.85706C13.2018 7.83883 12.9649 7.88138 12.7441 7.98062L13.5927 7.5553L16.665 6.02017C17.2159 5.70828 17.8761 5.77309 18.6477 6.21864C19.4193 6.66419 20.0816 7.3629 20.6304 8.31072C21.1813 9.25853 21.4567 10.176 21.4567 11.061Z" stroke="#DABCEB" stroke-width="0.274839" stroke-linecap="round" stroke-linejoin="round"/>
<path d="M17.0015 23.3644C17.1311 23.1983 17.2303 22.9958 17.3012 22.7629C17.3701 22.528 17.4065 22.2566 17.4065 21.9467C17.4065 21.2521 17.2364 20.5391 16.8982 19.8039C16.805 19.6034 16.6997 19.3989 16.5802 19.1943C16.5053 19.0647 16.4263 18.9391 16.3473 18.8176C15.8471 18.0602 15.2638 17.4891 14.5975 17.1043C14.1864 16.8673 13.8056 16.7357 13.4573 16.7154C13.2122 16.6992 12.9814 16.7398 12.7667 16.8309L12.6148 16.9058C12.3839 17.0375 12.2017 17.2197 12.068 17.4526C12.0153 17.5438 11.9708 17.643 11.9323 17.7504C11.8371 18.0197 11.7905 18.3356 11.7905 18.7042C11.7905 19.5913 12.066 20.5087 12.6148 21.4566C13.1657 22.4044 13.8259 23.1011 14.5975 23.5467C14.8547 23.6965 15.1038 23.8039 15.3428 23.8666C15.5838 23.9314 15.8086 23.9517 16.0192 23.9254L18.1781 27.6275L19.1604 27.0685L17.0015 23.3644ZM15.5899 22.0358C15.3144 22.1918 14.9843 22.1594 14.5975 21.9366C14.2127 21.7138 13.8806 21.3655 13.6072 20.8915C13.3317 20.4176 13.194 19.9579 13.194 19.5164C13.194 19.0749 13.3317 18.7731 13.6072 18.6151C13.8806 18.4592 14.2127 18.4916 14.5975 18.7144C14.9843 18.9371 15.3144 19.2855 15.5899 19.7614C15.8653 20.2353 16.001 20.693 16.001 21.1366C16.001 21.5801 15.8653 21.8799 15.5899 22.0358Z" stroke="#DABCEB" stroke-width="0.274839" stroke-linecap="round" stroke-linejoin="round"/>
<path d="M16.0008 21.1366C16.0008 21.5801 15.8651 21.8797 15.5896 22.0356C15.3142 22.1916 14.9841 22.1591 14.5973 21.9364C14.2125 21.7136 13.8803 21.3655 13.6069 20.8914C13.3315 20.4175 13.1938 19.9578 13.1938 19.5163C13.1938 19.0748 13.3315 18.773 13.6069 18.6151C13.8803 18.4591 14.2125 18.4915 14.5973 18.7143C14.9841 18.9371 15.3142 19.2854 15.5896 19.7614C15.8651 20.2353 16.0008 20.693 16.0008 21.1366Z" stroke="#DABCEB" stroke-width="0.274839" stroke-linecap="round" stroke-linejoin="round"/>
<path d="M21.457 19.9214C21.457 20.2313 21.4205 20.5026 21.3517 20.7376C21.2808 20.9705 21.1815 21.1731 21.0519 21.3391L17.0014 23.3644C17.1311 23.1983 17.2303 22.9958 17.3012 22.7629C17.37 22.528 17.4065 22.2566 17.4065 21.9467C17.4065 21.2521 17.2364 20.5391 16.8982 19.8039C16.805 19.6034 16.6997 19.3989 16.5802 19.1943C16.5053 19.0647 16.4263 18.9391 16.3473 18.8176C15.8471 18.0602 15.2638 17.4891 14.5975 17.1043C14.1864 16.8673 13.8056 16.7357 13.4573 16.7154C13.2122 16.6992 12.9813 16.7397 12.7667 16.8309L13.593 16.4177L16.6653 14.8806C17.2161 14.5667 17.8763 14.6335 18.648 15.079C19.4196 15.5246 20.0818 16.2213 20.6307 17.1691C21.1815 18.1189 21.457 19.0364 21.457 19.9214Z" stroke="#DABCEB" stroke-width="0.274839" stroke-linecap="round" stroke-linejoin="round"/>
<path d="M23.2105 25.0433L19.1601 27.0685L17.0012 23.3644L21.0516 21.3391L23.2105 25.0433Z" stroke="#DABCEB" stroke-width="0.274839" stroke-linecap="round" stroke-linejoin="round"/>
<path d="M18.178 27.6275L22.2285 25.6023" stroke="#DABCEB" stroke-width="0.274839" stroke-linecap="round" stroke-linejoin="round"/>
</svg>
