<svg width="27" height="27" viewBox="0 0 27 27" fill="none" xmlns="http://www.w3.org/2000/svg">
<g clip-path="url(#clip0_1032_3473)">
<path d="M20.1401 14.1632V21.708L18.7239 20.8899L17.2886 20.0622L17.2408 20.0335L16.705 19.7249L15.0616 18.7753L14.4683 18.4332L13.5641 17.9117C13.3225 17.7729 13.1 17.6964 12.8967 17.6844C12.856 17.682 12.8153 17.682 12.7771 17.6844H12.7747C12.6407 17.6892 12.5211 17.7275 12.4039 17.7945C12.313 17.8447 12.2388 17.9069 12.1766 17.9835H12.1743C12.0044 18.1844 11.9207 18.4715 11.9207 18.847V22.7845L13.2148 22.0453L14.387 24.0427L11.1002 25.9183L7.811 20.2464L8.96162 19.591L10.2773 21.8348V17.8973C10.2773 17.3782 10.117 16.8424 9.79408 16.2874C9.47354 15.7325 9.08601 15.3234 8.6339 15.0627L2.05792 11.2663V3.72156L3.70132 4.67123V10.3286L8.6339 13.1753C9.12668 13.4599 9.58597 13.8403 10.0094 14.3139C10.4352 14.7852 10.7988 15.3067 11.1002 15.8736C11.203 15.797 11.3155 15.7349 11.4351 15.687C11.4758 15.6703 11.5164 15.6559 11.5571 15.644H11.5619C11.7532 15.5841 11.9614 15.5602 12.1886 15.5698C12.612 15.5865 13.0713 15.7396 13.5641 16.0243L15.0616 16.8879L16.705 17.8375L18.4967 18.8709V13.2112L20.1401 14.1608V14.1632Z" stroke="#DABCEB" stroke-width="0.274839" stroke-linecap="round" stroke-linejoin="round"/>
<path d="M8.48543 2.28149V7.93889L6.84204 8.76178L3.70117 10.331V4.67362L6.84204 3.10438L8.48543 2.28149Z" stroke="#DABCEB" stroke-width="0.274839" stroke-linecap="round" stroke-linejoin="round"/>
<path d="M8.48559 2.28147L6.84219 3.10436L3.70132 4.6736L2.05792 3.72392L6.84219 1.33179L8.48559 2.28147Z" stroke="#DABCEB" stroke-width="0.274839" stroke-linecap="round" stroke-linejoin="round"/>
<path d="M19.1709 21.653L15.7788 23.349L14.3866 24.0451L13.2145 22.0477L14.6187 21.3468L16.7046 20.3038L17.2404 20.0335L17.2883 20.0622L18.7236 20.8899L19.1709 21.653Z" stroke="#DABCEB" stroke-width="0.274839" stroke-linecap="round" stroke-linejoin="round"/>
<path d="M19.1712 21.653L15.8844 23.5284L11.1001 25.9207L14.3869 24.0451L15.7791 23.349L19.1712 21.653Z" stroke="#DABCEB" stroke-width="0.274839" stroke-linecap="round" stroke-linejoin="round"/>
<path d="M24.9242 11.7711V19.3159L20.1399 21.708V14.1632L23.2808 12.594L24.9242 11.7711Z" stroke="#DABCEB" stroke-width="0.274839" stroke-linecap="round" stroke-linejoin="round"/>
<path d="M24.9241 11.771L23.2807 12.5939L20.1399 14.1631L18.4965 13.2135L23.2807 10.8213L24.9241 11.771Z" stroke="#DABCEB" stroke-width="0.274839" stroke-linecap="round" stroke-linejoin="round"/>
<path d="M18.4964 13.7207V18.8733L16.7047 17.8399L15.0613 16.8902L13.5638 16.0267C13.071 15.742 12.6117 15.5889 12.1883 15.5722C11.9611 15.5626 11.753 15.5865 11.5616 15.6439H11.5568C11.5161 15.6583 11.4755 15.6726 11.4348 15.6894L15.8746 13.4671L16.0636 13.3714L16.1449 13.3307C16.3889 13.2183 16.664 13.1681 16.9726 13.18C17.396 13.1968 17.8553 13.3499 18.3481 13.6345L18.4964 13.7207Z" stroke="#DABCEB" stroke-width="0.274839" stroke-linecap="round" stroke-linejoin="round"/>
<path d="M15.8747 13.4671L11.4349 15.6894C11.3153 15.7372 11.2029 15.7994 11.1 15.876C10.7986 15.309 10.435 14.7876 10.0092 14.3163C9.58582 13.8427 9.12653 13.4623 8.63375 13.1776L3.70117 10.331L6.84204 8.76177L8.48543 7.93887L13.418 10.7855C13.9108 11.0702 14.3701 11.4505 14.7935 11.9242C15.2145 12.3906 15.5757 12.9073 15.8747 13.4671Z" stroke="#DABCEB" stroke-width="0.274839" stroke-linecap="round" stroke-linejoin="round"/>
<path d="M16.705 19.7249V20.3038L14.619 21.3468L13.2149 22.0477L11.9207 22.7868V18.8494C11.9207 18.4738 12.0044 18.1867 12.1743 17.9882C12.2365 17.9092 12.3106 17.8471 12.4015 17.7968C12.5187 17.7299 12.6384 17.6916 12.7723 17.6868H12.7747C12.813 17.682 12.8536 17.682 12.8943 17.6844C13.0976 17.6964 13.3201 17.7729 13.5617 17.9116L14.4659 18.4331L15.0592 18.7752L16.7026 19.7249H16.705Z" stroke="#DABCEB" stroke-width="0.274839" stroke-linecap="round" stroke-linejoin="round"/>
<path d="M10.277 18.9354V21.8371L8.96136 19.5933L10.277 18.9354Z" stroke="#DABCEB" stroke-width="0.274839" stroke-linecap="round" stroke-linejoin="round"/>
</g>
<defs>
<clipPath id="clip0_1032_3473">
<rect width="25.835" height="25.835" fill="white" transform="translate(0.622498 0.617157)"/>
</clipPath>
</defs>
</svg>
