<svg width="31" height="32" viewBox="0 0 31 32" fill="none" xmlns="http://www.w3.org/2000/svg">
<g clip-path="url(#clip0_1032_3490)">
<path d="M24.441 26.8603C24.5759 26.81 24.7083 26.748 24.838 26.6802L24.441 26.8603Z" stroke="#DABCEB" stroke-width="0.274839" stroke-linecap="round" stroke-linejoin="round"/>
<path d="M21.3328 15.8588C21.3002 16.7942 20.9933 17.4116 20.4121 17.717C19.8309 18.0223 19.1427 17.9262 18.3447 17.4257C17.5467 16.9282 16.8813 16.1788 16.3457 15.1775C15.8102 14.1733 15.5587 13.2079 15.5914 12.2726C15.624 11.3372 15.9308 10.7198 16.512 10.4145L16.6321 10.3581C17.1877 10.1268 17.8349 10.2417 18.5794 10.7057C19.3775 11.2032 20.0429 11.9526 20.5784 12.9567C21.1139 13.958 21.3654 14.9263 21.3328 15.8588Z" stroke="#DABCEB" stroke-width="0.274839" stroke-linecap="round" stroke-linejoin="round"/>
<path d="M22.0533 23.2059C21.9992 24.7542 21.6977 26.0461 21.1514 27.0846C21.1513 27.0874 21.1484 27.0873 21.1483 27.0902C20.599 28.1314 19.8753 28.887 18.98 29.3572C18.0819 29.8272 17.0416 29.9926 15.8564 29.8532C14.6741 29.7139 13.4202 29.2322 12.0948 28.405C10.7723 27.578 9.53886 26.5062 8.39765 25.1898C7.25347 23.8762 6.2691 22.4443 5.4414 20.8969C4.61646 19.3524 3.97546 17.7394 3.52107 16.0638C3.06668 14.3882 2.86657 12.7733 2.92064 11.225C2.97471 9.67663 3.27662 8.37609 3.82619 7.32624C4.37576 6.27639 5.09957 5.5179 5.99496 5.04491L6.41074 4.85481C7.20869 4.53113 8.10549 4.42993 9.10432 4.54261C9.29664 4.56373 9.49147 4.59647 9.68885 4.63794C10.6931 4.84302 11.7493 5.29196 12.8547 5.98466C13.43 6.34188 13.8344 6.64413 14.0709 6.88579C14.3045 7.12735 14.459 7.40651 14.5288 7.71727C14.5879 7.92392 14.6014 8.11457 14.5695 8.28635C14.5404 8.45822 14.4747 8.60862 14.3723 8.73471C14.1499 8.99781 13.9858 9.32348 13.8742 9.71147C13.7627 10.0995 13.6978 10.5553 13.6796 11.0763C13.6255 12.6275 14.0446 14.2385 14.9398 15.9151C15.8352 17.5888 16.9441 18.8406 18.2666 19.6677C18.6811 19.9271 19.0863 20.1228 19.4794 20.2546C19.8753 20.3866 20.2509 20.4401 20.609 20.418C20.773 20.4238 20.936 20.4611 21.0948 20.5329C21.2565 20.6049 21.3967 20.7192 21.5238 20.8735C21.7433 21.1059 21.8919 21.3907 21.9696 21.7248C22.0472 22.0588 22.0761 22.5526 22.0533 23.2059Z" stroke="#DABCEB" stroke-width="0.274839" stroke-linecap="round" stroke-linejoin="round"/>
<path d="M27.1893 13.1818C27.1566 14.1172 26.8498 14.7346 26.2686 15.04L26.1486 15.0962L23.2994 16.3972L20.4121 17.7169C20.9933 17.4116 21.3002 16.7941 21.3328 15.8588C21.3655 14.9235 21.114 13.958 20.5784 12.9567C20.0429 11.9525 19.3775 11.2032 18.5794 10.7056C17.8349 10.2417 17.1877 10.1268 16.6321 10.3581L19.5399 9.03042L22.3685 7.73746C22.9496 7.43503 23.6378 7.5311 24.4359 8.02865C25.234 8.52621 25.8994 9.27555 26.4349 10.2797C26.9704 11.281 27.2219 12.2493 27.1893 13.1818Z" stroke="#DABCEB" stroke-width="0.274839" stroke-linecap="round" stroke-linejoin="round"/>
<path d="M27.9095 20.5289C27.8553 22.0801 27.5537 23.3749 27.0045 24.4133C26.4552 25.4545 25.7315 26.2101 24.8362 26.6802L24.441 26.8595L18.9798 29.3572C19.875 28.8871 20.5987 28.1315 21.148 27.0902C21.1481 27.0874 21.151 27.0874 21.1511 27.0846C21.6974 26.0461 21.9989 24.7542 22.053 23.2059C22.0758 22.5526 22.047 22.0588 21.9693 21.7247C21.8916 21.3907 21.743 21.106 21.5235 20.8735C21.3964 20.7193 21.2563 20.6049 21.0945 20.533C20.9357 20.4611 20.7728 20.4237 20.6087 20.418C20.2506 20.4401 19.875 20.3866 19.4791 20.2546C19.0861 20.1228 18.6809 19.9271 18.2663 19.6677C16.9438 18.8406 15.8349 17.5888 14.9396 15.9151C14.0444 14.2385 13.6252 12.6275 13.6793 11.0763C13.6975 10.5553 13.7624 10.0994 13.874 9.71146C13.9855 9.32347 14.1496 8.99783 14.372 8.73473C14.4744 8.60864 14.5401 8.45822 14.5692 8.28634C14.6011 8.11457 14.5876 7.92392 14.5286 7.71727C14.4587 7.40651 14.3042 7.12734 14.0706 6.88578C13.8341 6.64412 13.4297 6.34188 12.8544 5.98465C11.749 5.29195 10.6928 4.84301 9.68856 4.63793C9.49118 4.59646 9.29638 4.56373 9.10406 4.5426C8.10523 4.42992 7.2084 4.53115 6.41045 4.85483L11.8512 2.36792C12.7493 1.8979 13.7838 1.73233 14.9605 1.86563C16.1373 1.99893 17.3883 2.48058 18.7109 3.30765C19.2862 3.66488 19.6906 3.96715 19.9271 4.20881C20.1607 4.45035 20.3152 4.72952 20.385 5.04028C20.4441 5.24693 20.4576 5.43758 20.4257 5.60935C20.3966 5.78123 20.3309 5.93165 20.2285 6.05775C20.0061 6.32084 19.842 6.64648 19.7304 7.03447C19.6189 7.42246 19.554 7.87835 19.5358 8.39927C19.5285 8.60936 19.5299 8.81688 19.5397 9.03045L16.632 10.3581L16.5119 10.4145C15.9307 10.7198 15.6238 11.3401 15.5912 12.2726C15.5587 13.205 15.8101 14.1733 16.3456 15.1775C16.8812 16.1788 17.5465 16.9282 18.3446 17.4258C19.1426 17.9262 19.8308 18.0223 20.412 17.7169L23.2993 16.3972C23.5626 16.6139 23.838 16.8137 24.1228 16.9907C24.5373 17.2501 24.9426 17.4458 25.3356 17.5777C25.7315 17.7096 26.1071 17.7631 26.4652 17.741C26.6292 17.7468 26.7922 17.7841 26.951 17.856C27.1128 17.9279 27.2528 18.0423 27.38 18.1966C27.5995 18.429 27.7481 18.7137 27.8258 19.0478C27.9035 19.3818 27.9323 19.8756 27.9095 20.5289Z" stroke="#DABCEB" stroke-width="0.274839" stroke-linecap="round" stroke-linejoin="round"/>
</g>
<defs>
<clipPath id="clip0_1032_3490">
<rect width="29.3734" height="29.3734" fill="white" transform="translate(1.22742 0.703125) rotate(2)"/>
</clipPath>
</defs>
</svg>
