<svg width="33" height="33" viewBox="0 0 33 33" fill="none" xmlns="http://www.w3.org/2000/svg">
<g clip-path="url(#clip0_1032_3501)">
<path d="M18.3982 13.5481L17.9964 9.72507L14.6911 8.25267L9.6767 6.0218L9.16113 5.7915L9.56295 9.61457L5.14531 7.64778L6.65214 21.9843L24.3201 29.8493L22.8135 15.5152L18.3982 13.5481ZM11.128 8.48845L13.0101 9.32749L16.4288 10.8491L16.6297 12.7606L11.3289 10.4L11.128 8.48845ZM22.1523 25.2408L8.01862 18.9464L7.71725 16.0791L10.5392 17.3366L10.8819 17.4887L21.851 22.3736L22.1523 25.2408Z" stroke="#DABCEB" stroke-width="0.274839" stroke-linecap="round" stroke-linejoin="round"/>
<path d="M10.5392 17.3365L8.01865 18.9463L7.71729 16.079L10.5392 17.3365Z" stroke="#DABCEB" stroke-width="0.274839" stroke-linecap="round" stroke-linejoin="round"/>
<path d="M22.8049 10.7338L18.3983 13.5481L22.8136 15.5152L27.2202 12.7009L22.8049 10.7338Z" stroke="#DABCEB" stroke-width="0.274839" stroke-linecap="round" stroke-linejoin="round"/>
<path d="M13.0098 9.32754L11.3286 10.4L11.1277 8.48849L13.0098 9.32754Z" stroke="#DABCEB" stroke-width="0.274839" stroke-linecap="round" stroke-linejoin="round"/>
<path d="M16.4284 10.849L16.6293 12.7606L11.3286 10.3999L13.0098 9.32743L16.4284 10.849Z" stroke="#DABCEB" stroke-width="0.274839" stroke-linecap="round" stroke-linejoin="round"/>
<path d="M27.2203 12.7008L28.7269 27.0349L24.3203 29.8492L22.8138 15.5151L27.2203 12.7008Z" stroke="#DABCEB" stroke-width="0.274839" stroke-linecap="round" stroke-linejoin="round"/>
<path d="M22.403 6.91079L22.8048 10.7339L18.3983 13.5482L17.9965 9.7251L19.0408 9.05811L20.7218 7.98329L22.403 6.91079Z" stroke="#DABCEB" stroke-width="0.274839" stroke-linecap="round" stroke-linejoin="round"/>
<path d="M21.851 22.3736L22.1523 25.2408L8.01859 18.9464L10.5391 17.3366L10.8819 17.4887L21.851 22.3736Z" stroke="#DABCEB" stroke-width="0.274839" stroke-linecap="round" stroke-linejoin="round"/>
<path d="M10.2055 5.12452L9.6217 5.49858L9.16112 5.79151L9.56294 9.61458L5.1453 7.6478L9.55179 4.8335L10.2055 5.12452Z" stroke="#DABCEB" stroke-width="0.274839" stroke-linecap="round" stroke-linejoin="round"/>
<path d="M22.4026 6.9108L20.7214 7.98329L19.0404 9.05811L17.9961 9.7251L14.6908 8.25271L9.67637 6.02183L9.1608 5.79153L9.62138 5.4986L10.2051 5.12455L13.5673 2.97723L22.4026 6.9108Z" stroke="#DABCEB" stroke-width="0.274839" stroke-linecap="round" stroke-linejoin="round"/>
</g>
<defs>
<clipPath id="clip0_1032_3501">
<rect width="29.2285" height="29.2285" fill="white" transform="translate(0.842407 3.621) rotate(-6)"/>
</clipPath>
</defs>
</svg>
