<svg width="203" height="142" viewBox="0 0 203 142" fill="none" xmlns="http://www.w3.org/2000/svg">
<g clip-path="url(#clip0_935_750)">
<path d="M197.645 141.009H110.127C107.465 141.009 105.32 138.864 105.32 136.202V78.8903C105.32 76.2282 107.465 74.083 110.127 74.083H150.856C151.749 74.083 152.453 73.3627 152.453 72.4858V67.8351C152.453 58.8155 145.062 51.3932 136.043 51.3306L110.08 51.1427C107.434 51.127 105.304 48.9817 105.304 46.3354V13.7648C105.304 11.5256 106.854 9.56824 109.031 9.06716C114.527 7.81445 120.258 7.14111 126.131 7.14111C138.282 7.14111 149.791 9.99103 159.985 15.0645C174.454 22.252 186.323 33.8709 193.793 48.1675C198.678 57.5158 201.701 67.9917 202.311 79.1408C202.374 80.3152 202.421 121.874 202.436 136.218C202.436 138.88 200.291 141.025 197.629 141.025L197.645 141.009Z" fill="#FFE1BE"/>
<path d="M97.321 11.589V69.2765C97.321 71.9385 95.1758 74.0838 92.5138 74.0838L63.5291 74.3656C53.758 74.4596 45.8972 82.4143 45.8972 92.1855V136.578C45.8972 139.24 43.7519 141.386 41.0899 141.386H5.99827C3.33625 141.386 1.19099 139.24 1.19099 136.578C1.19099 136.578 1.17533 63.2948 1.15967 61.5566C2.56897 31.0687 26.8403 6.78174 57.6727 6.78174H92.5294C95.1915 6.78174 97.3367 8.94267 97.3367 11.589H97.321Z" fill="#FFE1BE"/>
<path d="M148.79 130.298C148.79 118.35 139.113 108.673 127.165 108.673C139.113 108.673 148.79 98.9956 148.79 87.0479C148.79 98.9956 158.467 108.673 170.415 108.673C158.467 108.673 148.79 118.35 148.79 130.298Z" fill="#FF8900"/>
</g>
<defs>
<clipPath id="clip0_935_750">
<rect width="202" height="140.93" fill="white" transform="translate(0.500977 0.736328)"/>
</clipPath>
</defs>
</svg>
