<svg width="108" height="108" viewBox="0 0 108 108" fill="none" xmlns="http://www.w3.org/2000/svg">
<path d="M57.8489 46.1246C58.344 45.9335 58.8132 45.6989 59.2737 45.4122L57.8489 46.1246Z" fill="#FFED8D" stroke="#706000" stroke-width="0.434362" stroke-linecap="round" stroke-linejoin="round"/>
<path d="M66.2927 85.8946L65.5283 88.97L61.454 105.337L29.1548 86.6852L24.3074 61.6486L45.7649 74.0366L66.2927 85.8946Z" fill="#FFED8D" stroke="#706000" stroke-width="0.434362" stroke-linecap="round" stroke-linejoin="round"/>
<path d="M74.3722 68.3208V86.8506L69.7334 84.175L44.9574 69.8671L27.7479 59.9289L16.2373 53.2831V34.7533L42.0731 49.6693V41.8855C38.8849 39.4531 36.0616 36.4647 33.6118 32.9289C32.5085 31.3305 31.4834 29.6278 30.5278 27.8035L30.4497 27.6471C27.4352 21.8527 25.9236 16.206 25.9236 10.6983C31.3097 13.7996 35.8791 18.6037 39.6494 25.1104C40.8569 27.1954 41.8733 29.2542 42.6899 31.3044C44.4361 35.6481 45.3048 39.9222 45.3048 44.1181C45.3048 39.9222 46.1735 36.6645 47.9197 34.3276C48.7276 33.2156 49.744 32.3208 50.9515 31.6345C51.2295 31.4782 51.5074 31.3305 51.7941 31.2176C53.1406 30.5921 54.5827 30.2967 56.1203 30.3228C58.0836 30.3488 60.2034 30.8788 62.4795 31.9299C62.6185 31.9907 62.7488 32.0602 62.8878 32.121C63.4698 32.4077 64.0692 32.7291 64.6773 33.0766C64.6773 38.6278 63.1484 42.5631 60.0818 44.8739C59.8212 45.0737 59.5606 45.2561 59.2826 45.4038H59.2739L57.8491 46.1249L57.7711 46.1596C55.1388 47.176 52.0634 47.0023 48.5364 45.6123V53.3961L74.3722 68.3208Z" fill="#FFED8D" stroke="#706000" stroke-width="0.434362" stroke-linecap="round" stroke-linejoin="round"/>
<path d="M57.8489 46.1246C58.344 45.9335 58.8132 45.6989 59.2737 45.4122L57.8489 46.1246Z" fill="#FFED8D" stroke="#706000" stroke-width="0.434362" stroke-linecap="round" stroke-linejoin="round"/>
<path d="M69.733 84.1748L66.2927 85.8949L45.7649 74.0368L24.3074 61.6488L27.7475 59.9287L44.957 69.8669L69.733 84.1748Z" fill="#FFED8D" stroke="#706000" stroke-width="0.434362" stroke-linecap="round" stroke-linejoin="round"/>
<path d="M82.2517 82.9155L78.8289 96.6501L61.4544 105.337L65.5287 88.9706L66.2931 85.8953L69.7334 84.1752L74.3722 86.8508L82.2517 82.9155Z" fill="#FFED8D" stroke="#706000" stroke-width="0.434362" stroke-linecap="round" stroke-linejoin="round"/>
<path d="M91.7464 59.6335V78.1634L82.2513 82.9067V82.9153L74.3719 86.8507V68.3208L74.5456 68.2339L91.7464 59.6335Z" fill="#FFED8D" stroke="#706000" stroke-width="0.434362" stroke-linecap="round" stroke-linejoin="round"/>
<path d="M91.7467 59.6334L74.546 68.2338L74.3722 68.3207L48.5364 53.396L48.7101 53.3091L65.9109 44.7087L91.7467 59.6334Z" fill="#FFED8D" stroke="#706000" stroke-width="0.434362" stroke-linecap="round" stroke-linejoin="round"/>
<path d="M65.9109 42.1024V44.7086L48.7101 53.309L48.5364 53.2134V45.6121C52.0634 47.002 55.1389 47.1758 57.7711 46.1594L57.8491 46.1246C58.3443 45.9335 58.8135 45.6989 59.2739 45.4123H59.2826L65.9109 42.1024Z" fill="#FFED8D" stroke="#706000" stroke-width="0.434362" stroke-linecap="round" stroke-linejoin="round"/>
<path d="M82.0517 24.3892C82.0517 29.9404 80.5228 33.8757 77.4562 36.1865C76.8568 36.6295 76.2314 37.0031 75.5798 37.2898L75.4146 37.368L65.9107 42.1025L59.2825 45.4036C59.5605 45.256 59.8211 45.0735 60.0817 44.8737C63.1483 42.5629 64.6772 38.6276 64.6772 33.0765L82.0517 24.3892Z" fill="#FFED8D" stroke="#706000" stroke-width="0.434362" stroke-linecap="round" stroke-linejoin="round"/>
<path d="M61.3671 26.422L55.2687 29.4712L51.7938 31.2174C51.5071 31.3303 51.2291 31.478 50.9511 31.6343C49.7436 32.3206 48.7272 33.2154 47.9193 34.3274C46.1731 36.6642 45.3044 39.922 45.3044 44.1179C45.3044 39.922 44.4357 35.6478 42.6896 31.3042C41.873 29.254 40.8566 27.1952 39.649 25.1102C35.8788 18.6035 31.3094 13.7994 25.9233 10.6981L43.2977 2.01086C48.6838 5.11221 53.2532 9.91625 57.0235 16.423C58.9868 19.8023 60.4376 23.1295 61.3671 26.422Z" fill="#FFED8D" stroke="#706000" stroke-width="0.434362" stroke-linecap="round" stroke-linejoin="round"/>
<path d="M82.0517 24.3894L64.6772 33.0767C64.0691 32.7292 63.4697 32.4077 62.8876 32.1211C62.7486 32.0603 62.6183 31.9908 62.4793 31.9299C60.2033 30.8788 58.0835 30.3489 56.1202 30.3228C54.5825 30.2968 53.1405 30.5921 51.7939 31.2176L55.2688 29.4715L61.3674 26.4222L68.3258 22.9473C72.0961 20.8016 76.6743 21.2794 82.0517 24.3894Z" fill="#FFED8D" stroke="#706000" stroke-width="0.434362" stroke-linecap="round" stroke-linejoin="round"/>
<path d="M51.7941 31.2177L51.4902 31.3654L51.7941 31.2177Z" fill="#FFED8D"/>
<path d="M51.7941 31.2177L51.4902 31.3654" stroke="#706000" stroke-width="0.434362" stroke-linecap="round" stroke-linejoin="round"/>
<path d="M42.0732 41.8854V49.6692L16.2373 34.7532L30.4497 27.647L30.5278 27.8034C31.4834 29.6277 32.5085 31.3304 33.6118 32.9289C36.0616 36.4646 38.8849 39.453 42.0732 41.8854Z" fill="#FFED8D" stroke="#706000" stroke-width="0.434362" stroke-linecap="round" stroke-linejoin="round"/>
</svg>
