<svg width="56" height="19" viewBox="0 0 56 19" fill="none" xmlns="http://www.w3.org/2000/svg">
<g clip-path="url(#clip0_935_68)">
<path d="M8.29747 0.635363L10.0724 1.85185C10.1554 1.90899 10.1738 2.02327 10.1111 2.10068C9.92683 2.33107 9.56373 2.77896 9.33702 3.00752C8.75274 3.59549 8.08551 4.09867 7.35562 4.49864L7.00357 4.69033C6.94828 4.71982 6.88008 4.71797 6.82847 4.68111L5.07931 3.48305C4.97609 3.41117 4.98531 3.2545 5.09774 3.19736C6.0654 2.69602 6.928 2.01958 7.64131 1.20121C7.75558 1.07035 7.94727 0.823366 8.06339 0.670383C8.11869 0.596656 8.2219 0.581911 8.29747 0.63352V0.635363Z" fill="#FFE1BE"/>
<path d="M3.92742 4.02307H1.01891C0.732861 4.02307 0.500977 4.25496 0.500977 4.541V17.939C0.500977 18.225 0.732861 18.4569 1.01891 18.4569H3.92742C4.21346 18.4569 4.44535 18.225 4.44535 17.939V4.541C4.44535 4.25496 4.21346 4.02307 3.92742 4.02307Z" fill="#FFE1BE"/>
<path d="M19.2753 13.9909C19.1444 16.1216 17.939 18.5564 13.8435 18.5435C10.817 18.5343 8.74528 16.352 8.74528 13.5172V8.97195H6.99059C6.70489 8.97195 6.47266 8.73972 6.47266 8.45403V7.25044C6.47266 6.96475 6.70489 6.73251 6.99059 6.73251H8.85402V4.73821C8.85402 4.45251 9.08626 4.22028 9.37195 4.22028H12.2252C12.5109 4.22028 12.7431 4.45251 12.7431 4.73821V6.73251H15.4157C15.7014 6.73251 15.9336 6.96475 15.9336 7.25044V8.45403C15.9336 8.73972 15.7014 8.97195 15.4157 8.97195H12.7431V13.1375C12.8002 15.0231 13.8693 14.6157 13.9025 13.6702C13.9283 12.9126 13.9448 12.2546 13.9448 12.2491V12.2141C13.9559 11.9376 14.1808 11.7164 14.4591 11.7146L18.7518 11.6814C19.0357 11.6777 19.2679 11.9026 19.2771 12.1846V12.2215C19.2771 12.2712 19.3085 13.4527 19.2771 13.9909H19.2753Z" fill="#FFE1BE"/>
<path d="M31.746 4.14471C32.0317 4.14471 32.264 4.37695 32.264 4.66264V13.0619C32.264 16.3925 29.9176 18.5417 26.2866 18.5417C22.6555 18.5417 20.311 16.3907 20.311 13.0619V4.66449C20.311 4.3788 20.5433 4.14656 20.829 4.14656H23.6822C23.9679 4.14656 24.2001 4.3788 24.2001 4.66449V12.756C24.2001 14.1549 24.5872 14.8074 25.5548 14.8056C26.5225 14.8037 26.7529 14.1549 26.7529 12.756V4.66449C26.7529 4.3788 26.9851 4.14656 27.2708 4.14656H31.7405L31.746 4.14471Z" fill="#FFE1BE"/>
<path d="M55.0325 18.4348H45.5936C45.3079 18.4348 45.0757 18.2025 45.0757 17.9168V11.7349C45.0757 11.4492 45.3079 11.2169 45.5936 11.2169H49.9859C50.0817 11.2169 50.1591 11.1395 50.1591 11.0437V10.5423C50.1591 9.57098 49.361 8.76921 48.3897 8.76183L45.5899 8.74156C45.3042 8.73972 45.0757 8.50748 45.0757 8.22363V4.7124C45.0757 4.47095 45.2416 4.25898 45.4775 4.20553C46.071 4.06914 46.6885 3.99725 47.3225 3.99725C48.633 3.99725 49.8734 4.30506 50.9738 4.85064C52.535 5.62477 53.8141 6.87812 54.6196 8.42085C55.1467 9.42906 55.4711 10.5589 55.5375 11.7607C55.5449 11.8878 55.5485 16.3704 55.5504 17.9168C55.5504 18.2044 55.3181 18.4348 55.0325 18.4348Z" fill="#FFE1BE"/>
<path d="M44.2113 4.47644V10.6971C44.2113 10.9847 43.9791 11.215 43.6934 11.215L40.5674 11.2464C39.5131 11.2574 38.6652 12.1145 38.6652 13.167V17.9555C38.6652 18.2412 38.433 18.4734 38.1473 18.4734H34.3615C34.0758 18.4734 33.8435 18.2412 33.8435 17.9555C33.8435 17.9555 33.8435 10.052 33.8398 9.86401C33.9928 6.5758 36.6101 3.95667 39.9352 3.95667H43.6934C43.9809 3.95667 44.2113 4.19075 44.2113 4.47459V4.47644Z" fill="#FFE1BE"/>
<path d="M49.7652 17.2791C49.7652 15.9907 48.722 14.9474 47.4336 14.9474C48.722 14.9474 49.7652 13.9042 49.7652 12.6158C49.7652 13.9042 50.8084 14.9474 52.0968 14.9474C50.8084 14.9474 49.7652 15.9907 49.7652 17.2791Z" fill="#FF8900"/>
</g>
<defs>
<clipPath id="clip0_935_68">
<rect width="55.0498" height="17.9395" fill="white" transform="translate(0.500977 0.604004)"/>
</clipPath>
</defs>
</svg>
