<svg width="108" height="108" viewBox="0 0 108 108" fill="none" xmlns="http://www.w3.org/2000/svg">
<path d="M73.0667 41.3865C73.0667 41.3865 73.0057 41.4881 72.9651 41.5389L73.1581 41.4475L73.0667 41.3865Z" fill="#F3C4B4" stroke="#C74115" stroke-width="0.508824" stroke-linecap="round" stroke-linejoin="round"/>
<path d="M61.323 97.7335V104.755L12.425 76.5156V20.4127L18.5309 23.9337V73.0251L61.323 97.7335Z" fill="#F3C4B4" stroke="#C74115" stroke-width="0.508824" stroke-linecap="round" stroke-linejoin="round"/>
<path d="M73.1693 41.4577H73.1591L72.9658 41.5391C73.0065 41.4882 73.0472 41.4373 73.0675 41.3966L61.7207 34.843L56.9887 32.1157L45.0008 25.1855L38.8847 21.6542L32.7788 18.123L31.5577 17.431L25.4416 13.8896L24.6478 13.4316V69.5448L25.0447 69.7686L67.8368 94.4771L73.5458 97.7743V41.6612L73.1693 41.4577ZM51.3509 73.3406C50.72 73.7171 49.9669 73.6459 49.1019 73.1472C48.2369 72.6384 47.4838 71.8345 46.8427 70.7354C46.2118 69.6465 45.8861 68.5983 45.8861 67.6112C45.8861 67.3568 45.9065 67.1329 45.9472 66.9294C46.0591 66.2985 46.3644 65.8405 46.8427 65.5759C47.4838 65.1994 48.2369 65.2706 49.1019 65.7693C49.9669 66.2781 50.72 67.0719 51.3509 68.1811C51.8292 69.0054 52.1345 69.7992 52.2464 70.5624C52.2871 70.8168 52.3075 71.061 52.3075 71.3053C52.3075 72.3127 51.992 72.9844 51.3509 73.3406ZM57.0396 55.4096C57.0396 55.4096 56.9989 55.4707 56.9683 55.5012V55.5216C56.4391 56.2848 55.4419 57.0582 53.9866 57.9029C52.8672 58.5338 52.1549 59.1647 51.8496 59.7855C51.5544 60.3656 51.4018 61.4646 51.3916 63.0623V63.2353L46.802 60.5894V60.4164C46.8122 57.8214 47.0056 56.1627 47.3821 55.4503C47.7586 54.6973 48.7966 53.9646 50.4757 53.242C51.4934 52.723 52.2057 52.2142 52.6128 51.7156C53.0199 51.2169 53.2234 50.5656 53.2234 49.7413C53.2234 48.398 52.8469 47.126 52.0734 45.8844C51.3102 44.6531 50.3231 43.6965 49.1019 42.9841C48.0843 42.3939 47.1786 42.2311 46.3848 42.5058C45.8454 42.6992 45.3773 43.0961 45.0008 43.727C44.8176 44.012 44.6548 44.3376 44.5123 44.7141L40.3908 40.3993C41.0014 38.5472 42.0801 37.3871 43.6371 36.9393C44.0645 36.8172 44.5225 36.7561 45.0008 36.7561C45.6215 36.7561 46.283 36.8782 46.9852 37.1021H46.9954C47.6568 37.326 48.3692 37.6517 49.1019 38.0689C50.0178 38.6083 50.8726 39.1985 51.6664 39.8803C53.1216 41.0913 54.3631 42.5364 55.4011 44.2053C57.009 46.8105 57.813 49.4157 57.813 52.0412C57.813 53.4964 57.5586 54.6362 57.0396 55.4096Z" fill="#F3C4B4" stroke="#C74115" stroke-width="0.508824" stroke-linecap="round" stroke-linejoin="round"/>
<path d="M52.3069 71.3053C52.3069 72.3026 51.9914 72.9845 51.3503 73.3406C50.7193 73.707 49.9663 73.6358 49.1013 73.1371C48.2363 72.6385 47.4832 71.8345 46.8421 70.7355C46.2111 69.6466 45.8855 68.5984 45.8855 67.6011C45.8855 67.3569 45.9058 67.133 45.9466 66.9295C46.0585 66.2985 46.3638 65.8406 46.8421 65.5658C47.4832 65.1995 48.2363 65.2707 49.1013 65.7693C49.9663 66.268 50.7193 67.0719 51.3503 68.171C51.8286 68.9953 52.1339 69.7992 52.2458 70.5625C52.2865 70.8169 52.3069 71.0611 52.3069 71.3053Z" fill="#F3C4B4" stroke="#C74115" stroke-width="0.508824" stroke-linecap="round" stroke-linejoin="round"/>
<path d="M46.9847 37.102L45.0003 38.0994L40.3904 40.3992C41.001 38.5369 42.0797 37.3767 43.6367 36.929C44.0641 36.8068 44.522 36.7458 45.0003 36.7458C45.6211 36.7458 46.2826 36.8679 46.9847 37.102Z" fill="#F3C4B4" stroke="#C74115" stroke-width="0.508824" stroke-linecap="round" stroke-linejoin="round"/>
<path d="M51.6659 39.87L46.3843 42.5057C45.845 42.6991 45.3769 43.0959 45.0003 43.7268C44.8171 44.0118 44.6543 44.3375 44.5119 44.714L40.3904 40.3992L45.0003 38.0993L46.9847 37.1019H46.9949C47.6564 37.3156 48.3687 37.6413 49.1014 38.0687C50.0173 38.5979 50.8722 39.1984 51.6659 39.87Z" fill="#F3C4B4" stroke="#C74115" stroke-width="0.508824" stroke-linecap="round" stroke-linejoin="round"/>
<path d="M57.8129 52.041C57.8129 53.4962 57.5585 54.6258 57.0395 55.4094C57.0191 55.4399 56.9988 55.4705 56.9683 55.501L46.9851 60.5078L46.8121 60.5892V60.4061C46.8121 57.8212 47.0157 56.1625 47.3922 55.4399C47.7687 54.6971 48.8067 53.9644 50.4858 53.2418C51.5035 52.7127 52.2158 52.2038 52.6229 51.7154C53.03 51.2167 53.2335 50.5654 53.2335 49.7411C53.2335 48.3978 52.857 47.1156 52.0835 45.8842C51.3203 44.6529 50.3332 43.6861 49.112 42.9738C48.0944 42.3937 47.1887 42.2309 46.3949 42.5056L51.6765 39.8699C53.1317 41.0809 54.3733 42.526 55.4113 44.2051C57.0191 46.8001 57.8231 49.4053 57.8231 52.041H57.8129Z" fill="#F3C4B4" stroke="#C74115" stroke-width="0.508824" stroke-linecap="round" stroke-linejoin="round"/>
<path d="M56.9574 55.5112C56.4384 56.2745 55.4411 57.0581 53.9859 57.9027C52.8665 58.5336 52.1541 59.1646 51.8488 59.7752C51.5537 60.3654 51.401 61.4645 51.3909 63.0622V63.2352L46.8013 60.5893L46.9743 60.5079L56.9574 55.5112Z" fill="#F3C4B4" stroke="#C74115" stroke-width="0.508824" stroke-linecap="round" stroke-linejoin="round"/>
<path d="M93.8983 31.4847V87.5978L81.6764 93.7138L80.8826 94.1107L73.5454 97.7743V41.6612L73.1688 41.4475L77.8805 39.1781L93.8983 31.4847Z" fill="#F3C4B4" stroke="#C74115" stroke-width="0.508824" stroke-linecap="round" stroke-linejoin="round"/>
<path d="M93.8988 31.4848L77.881 39.1783L73.1693 41.4476H73.1591L73.0675 41.3866L61.7207 34.8329L56.9887 32.1056L45.0008 25.1856L38.8847 21.6544L32.7788 18.1231L31.5577 17.4209L25.4416 13.8897L24.6478 13.4318L45.0008 3.25531L93.8988 31.4848Z" fill="#F3C4B4" stroke="#C74115" stroke-width="0.508824" stroke-linecap="round" stroke-linejoin="round"/>
<path d="M81.6766 93.7136V94.5787L61.3236 104.755V97.7333L67.8366 94.4768L73.5456 97.7741L80.8828 94.1206L81.6766 93.7136Z" fill="#F3C4B4" stroke="#C74115" stroke-width="0.508824" stroke-linecap="round" stroke-linejoin="round"/>
<path d="M67.8362 94.477L61.3232 97.7335L18.5311 73.025L25.0441 69.7686L67.8362 94.477Z" fill="#F3C4B4" stroke="#C74115" stroke-width="0.508824" stroke-linecap="round" stroke-linejoin="round"/>
<path d="M25.0441 69.7687L18.5311 73.0251V23.9338L24.6472 20.8809V69.5448L25.0441 69.7687Z" fill="#F3C4B4" stroke="#C74115" stroke-width="0.508824" stroke-linecap="round" stroke-linejoin="round"/>
<path d="M24.647 14.3478V20.8811L18.5309 23.9341L12.425 20.413L24.647 14.3478Z" fill="#F3C4B4" stroke="#C74115" stroke-width="0.508824" stroke-linecap="round" stroke-linejoin="round"/>
</svg>
