<svg width="108" height="108" viewBox="0 0 108 108" fill="none" xmlns="http://www.w3.org/2000/svg">
<path d="M46.613 43.2514C46.613 47.9072 45.1739 51.0583 42.2845 52.7047C39.3951 54.3511 35.9168 54.0022 31.8608 51.6579C29.015 50.0224 26.4636 47.7327 24.1957 44.7888C23.3671 43.7203 22.5821 42.5754 21.8407 41.3324C21.7099 41.1144 21.5789 40.8963 21.4481 40.6673C18.5587 35.6845 17.1085 30.8652 17.1085 26.2095C17.1085 21.5537 18.5587 18.4027 21.4481 16.7562L22.1785 16.3855C24.9152 15.1862 28.1427 15.655 31.8608 17.803C35.9168 20.1472 39.3951 23.8107 42.2845 28.7936C44.7923 33.1222 46.2096 37.32 46.5367 41.3979C46.5912 42.0194 46.613 42.6408 46.613 43.2514Z" fill="#DAD6FF" stroke="#8E8BAB" stroke-width="0.545169" stroke-linecap="round" stroke-linejoin="round"/>
<path d="M66.8608 23.7782L65.2468 24.585C61.8014 26.3405 59.0649 29.1645 57.0368 33.0788C55.8047 35.4448 54.9433 38.1488 54.4635 41.1909C54.2564 42.4775 54.1256 43.8186 54.0493 45.2251C54.0275 45.7594 54.0057 46.2937 54.0057 46.8497L42.2846 52.7048C45.174 51.0584 46.6131 47.9074 46.6131 43.2516C46.6131 42.641 46.5913 42.0195 46.5368 41.398C46.2097 37.3202 44.7923 33.1224 42.2846 28.7937C39.3952 23.8109 35.9169 20.1474 31.8608 17.8032C28.1428 15.6552 24.9153 15.1863 22.1785 16.3857L43.1675 5.90754C43.1675 5.90754 43.2221 5.87483 43.2549 5.85302C43.5274 5.70037 43.8 5.55863 44.0835 5.4496C46.7985 4.29384 49.9931 4.77359 53.6676 6.89974C57.7236 9.24397 61.2019 12.9075 64.0913 17.8904C65.2471 19.8857 66.1739 21.8374 66.8608 23.7782Z" fill="#DAD6FF" stroke="#8E8BAB" stroke-width="0.545169" stroke-linecap="round" stroke-linejoin="round"/>
<path d="M92.7669 69.2559L87.0535 72.516L82.4523 74.8166L67.2203 82.4381L67.1006 82.3618L70.9602 80.1593L82.3544 74.4677L86.8792 72.2107L86.8901 72.1998L92.7669 69.2559Z" fill="#DAD6FF" stroke="#8E8BAB" stroke-width="0.545169" stroke-linecap="round" stroke-linejoin="round"/>
<path d="M104.76 44.2217L92.8647 50.175L85.9084 53.6531L82.9534 55.1251L77.0439 44.9413L84.0984 41.4086L98.8506 34.038L104.76 44.2217Z" fill="#DAD6FF" stroke="#8E8BAB" stroke-width="0.545169" stroke-linecap="round" stroke-linejoin="round"/>
<path d="M92.5715 68.929C92.6369 69.038 92.7022 69.147 92.7676 69.2561L86.8908 72.2L82.366 74.4679L70.9718 80.1594C68.2677 75.7108 66.1527 71.066 64.6153 66.2249C63.078 61.3838 62.3037 56.7499 62.3037 52.3013C62.3037 51.7889 62.3146 51.2764 62.3364 50.7857C62.4891 47.2203 63.1652 44.1674 64.3973 41.616C64.4627 41.4525 64.539 41.2998 64.6153 41.1472C65.5094 39.4135 66.5888 37.9634 67.8645 36.7967C68.7913 35.9244 69.8269 35.2157 70.9718 34.6597L76.0421 32.1301L92.7785 23.7563C90.0745 25.0865 87.9595 27.2454 86.4221 30.2438C84.8847 33.2313 84.1105 36.9494 84.1105 41.3979L77.056 44.9415C76.8815 45.0179 76.7071 45.1051 76.5435 45.2032C74.8208 46.13 73.4579 47.5365 72.4438 49.4228C71.3426 51.5054 70.7865 54.0895 70.7865 57.1969C70.7865 57.5567 70.7865 57.9056 70.8083 58.2654C70.9174 61.0458 71.4734 63.9134 72.4438 66.89C73.556 70.2374 75.0934 73.5084 77.056 76.6921L82.246 74.0971L86.6947 71.8729L92.5824 68.929H92.5715Z" fill="#DAD6FF" stroke="#8E8BAB" stroke-width="0.545169" stroke-linecap="round" stroke-linejoin="round"/>
<path d="M61.376 90.7028V102.555L2.35596 68.4817V56.6299C2.35596 54.3075 2.87925 52.4211 3.92598 50.9818C4.44934 50.2622 5.07106 49.7171 5.79068 49.3573C6.5103 48.9975 7.33897 48.823 8.25486 48.823C11.3951 48.8012 14.9277 49.2918 18.8638 50.2949C20.5538 50.7311 22.32 51.3198 24.1627 52.0722C26.5942 53.0644 29.1675 54.3402 31.8606 55.8994C36.5927 58.6252 40.9321 61.7653 44.8682 65.3089C48.4881 68.5581 51.77 71.8618 54.7139 75.2091C54.9647 75.5035 55.2155 75.787 55.4663 76.0814C57.3089 78.2076 58.759 80.5954 59.8057 83.2449C60.8524 85.8944 61.376 88.3804 61.376 90.7028Z" fill="#DAD6FF" stroke="#8E8BAB" stroke-width="0.545169" stroke-linecap="round" stroke-linejoin="round"/>
<path d="M80.2718 67.7083C80.9478 69.6163 81.8418 71.4917 82.9539 73.3235L82.1362 73.7923L77.0444 76.6926C75.0818 73.5089 73.5444 70.2378 72.4323 66.8905C71.4619 63.9139 70.9058 61.0463 70.7968 58.2659C70.7859 57.9061 70.775 57.5572 70.775 57.1974C70.775 54.0899 71.331 51.5058 72.4323 49.4233C73.4463 47.537 74.8092 46.1305 76.5319 45.2037C76.6955 45.1056 76.8699 45.0183 77.0444 44.942L82.9539 55.1258C81.8418 55.6818 80.9478 56.5323 80.2718 57.6553C80.1955 57.7753 80.1301 57.8952 80.0646 58.0261C79.5304 59.0946 79.2578 60.4575 79.2578 62.093C79.2578 63.9357 79.5958 65.8002 80.2718 67.7083Z" fill="#DAD6FF" stroke="#8E8BAB" stroke-width="0.545169" stroke-linecap="round" stroke-linejoin="round"/>
<path d="M104.76 62.4197L98.8506 65.7889L92.5703 68.9291L86.6826 71.873L82.2339 74.0972L77.0439 76.6923L82.1356 73.792L82.9534 73.3231L86.497 71.5568L92.385 68.602L98.6545 65.4727L104.76 62.4197Z" fill="#DAD6FF" stroke="#8E8BAB" stroke-width="0.545169" stroke-linecap="round" stroke-linejoin="round"/>
<path d="M102.078 56.8042C102.754 58.7123 103.648 60.5878 104.761 62.4195L98.6549 65.4725L92.3854 68.6017L86.4975 71.5564L82.9539 73.3228C81.8417 71.491 80.9477 69.6156 80.2717 67.7076C79.5956 65.7995 79.2578 63.9351 79.2578 62.0924C79.2578 60.4569 79.5303 59.094 80.0646 58.0255C80.13 57.8946 80.1953 57.7746 80.2717 57.6546C80.9477 56.5316 81.8417 55.6812 82.9539 55.1252L85.9089 53.6531L92.8652 50.175L104.761 44.2218C103.648 44.7779 102.754 45.6282 102.078 46.7513C101.402 47.8743 101.064 49.3573 101.064 51.1891C101.064 53.0208 101.402 54.8961 102.078 56.8042Z" fill="#DAD6FF" stroke="#8E8BAB" stroke-width="0.545169" stroke-linecap="round" stroke-linejoin="round"/>
<path d="M64.6039 66.2249C66.1413 71.066 68.2564 75.7108 70.9605 80.1594L67.1009 82.3619L65.2471 83.4195C64.6147 82.3728 64.0151 81.326 63.4373 80.2575C60.8314 75.5036 58.6944 70.5644 57.0371 65.4507C55.0091 59.2031 53.9951 53.2281 53.9951 47.5038C53.9951 47.2857 53.9951 47.0677 54.006 46.8496C54.006 46.2935 54.0278 45.7592 54.0496 45.225C54.1259 43.8184 54.2566 42.4773 54.4638 41.1907C54.9435 38.1487 55.805 35.4447 57.0371 33.0786C59.0651 29.1643 61.8016 26.3403 65.2471 24.5849L68.2892 29.9494L70.9605 34.6596C69.8156 35.2157 68.7799 35.9244 67.8531 36.7967C66.5774 37.9633 65.498 39.4135 64.6039 41.1471C64.5276 41.2998 64.4514 41.4524 64.386 41.616C63.1539 44.1674 62.4777 47.2203 62.325 50.7857C62.3032 51.2764 62.2923 51.7888 62.2923 52.3013C62.2923 56.7498 63.0665 61.3838 64.6039 66.2249Z" fill="#DAD6FF" stroke="#8E8BAB" stroke-width="0.545169" stroke-linecap="round" stroke-linejoin="round"/>
<path d="M92.7669 23.7562L76.0304 32.1191V32.13L70.9602 34.6596L68.2889 29.9493L65.2468 24.5849L66.8607 23.778L87.0536 13.6815L92.7669 23.7562Z" fill="#DAD6FF" stroke="#8E8BAB" stroke-width="0.545169" stroke-linecap="round" stroke-linejoin="round"/>
<path d="M83.1834 79.7997V91.6516L61.3767 102.555V90.703C61.3767 88.3806 60.8531 85.8946 59.8064 83.2451C58.7596 80.5956 57.3095 78.2078 55.4668 76.0816C55.216 75.7872 54.9654 75.5037 54.7146 75.2094C51.7707 71.862 48.4887 68.5583 44.8687 65.3091C40.9326 61.7655 36.5932 58.6253 31.8611 55.8995C29.168 54.3403 26.5947 53.0646 24.1632 52.0724C22.3206 51.3201 20.5544 50.7313 18.8644 50.2952C14.9283 49.292 11.3956 48.8014 8.25543 48.8232C7.33955 48.8232 6.51088 48.9976 5.79126 49.3575L21.841 41.3326C22.5825 42.5756 23.3674 43.7204 24.1961 44.789C26.464 47.7329 29.0153 50.0226 31.8611 51.6581C35.9172 54.0023 39.3955 54.3512 42.2849 52.7048L54.006 46.8497C53.9951 47.0678 53.9951 47.2858 53.9951 47.5039C53.9951 53.2282 55.0091 59.2032 57.0371 65.4508C58.6944 70.5645 60.8314 75.5037 63.4373 80.2576C64.0152 81.3261 64.6147 82.3729 65.2471 83.4196L67.2206 82.4383L82.4526 74.8168C82.9433 76.5614 83.1834 78.2187 83.1834 79.7997Z" fill="#DAD6FF" stroke="#8E8BAB" stroke-width="0.545169" stroke-linecap="round" stroke-linejoin="round"/>
<path d="M5.79163 49.3574L5.6604 49.423L5.79163 49.3574Z" fill="#DAD6FF"/>
<path d="M5.79163 49.3574L5.6604 49.423" stroke="#8E8BAB" stroke-width="0.545169" stroke-linecap="round" stroke-linejoin="round"/>
</svg>
