<svg width="172" height="173" viewBox="0 0 172 173" fill="none" xmlns="http://www.w3.org/2000/svg">
<circle cx="85.0883" cy="91.8135" r="80.226" fill="white" fill-opacity="0.22"/>
<circle cx="85.0883" cy="91.8135" r="79.2133" stroke="white" stroke-opacity="0.1" stroke-width="2.02539"/>
<mask id="mask0_1063_3534" style="mask-type:alpha" maskUnits="userSpaceOnUse" x="0" y="0" width="172" height="173">
<circle cx="86.001" cy="86.2986" r="85.752" fill="#D9D9D9"/>
</mask>
<g mask="url(#mask0_1063_3534)">
<path d="M106.605 147.054H64.1629C64.1629 147.054 72.2533 122.731 64.1629 91.8966C62.0247 83.7364 108.507 83.7015 106.605 91.8966C100.653 117.486 106.605 147.054 106.605 147.054Z" fill="#C7776E"/>
<path d="M106.605 147.054H64.1629C64.1629 147.054 72.2533 122.731 64.1629 91.8966C62.0247 83.7364 108.507 83.7015 106.605 91.8966C100.653 117.486 106.605 147.054 106.605 147.054Z" fill="url(#paint0_linear_1063_3534)"/>
<path d="M85.3702 116.744C107.191 116.744 124.88 92.6466 124.88 62.9213C124.88 33.1959 107.191 9.09879 85.3702 9.09879C63.5498 9.09879 45.8608 33.1959 45.8608 62.9213C45.8608 92.6466 63.5498 116.744 85.3702 116.744Z" fill="#C7776E"/>
<g style="mix-blend-mode:color-burn">
<path d="M123.624 57.8943C124.182 62.6508 124.401 67.3549 124.331 71.963C120.037 70.1651 117.122 64.1606 117.576 57.5452C117.881 53.2076 119.566 49.5333 121.948 47.3689C122.638 50.7552 123.205 54.2724 123.624 57.8943Z" fill="#E8E8E8"/>
</g>
<path d="M124.155 69.2924C118.936 68.5418 115.131 61.8653 115.655 54.3684C116.178 46.8714 120.83 41.408 126.04 42.1499C131.259 42.9004 135.065 49.577 134.541 57.0739C134.017 64.5708 129.366 70.043 124.155 69.2924Z" fill="#C7776E"/>
<g style="mix-blend-mode:color-burn">
<path d="M130.85 56.5502C131.112 52.8236 129.218 49.4984 126.626 49.1319C124.383 48.8089 122.358 50.7988 121.686 53.7487C124.217 54.2025 126.05 57.4666 125.797 61.1322C125.762 61.6384 125.683 62.1184 125.578 62.5809C125.622 62.5809 125.657 62.6071 125.701 62.6158C128.293 62.9911 130.606 60.2681 130.867 56.5415L130.85 56.5502Z" fill="#919191"/>
</g>
<g style="mix-blend-mode:color-burn">
<path d="M92.998 56.7248C93.609 59.1248 94.953 61.4376 97.0912 62.6769C99.5262 64.0908 101.734 64.7454 104.518 64.3177C107.006 63.9337 108.542 63.6457 110.951 62.9213C111.963 62.6158 114.808 61.0711 115.227 60.1023C115.594 59.2645 115.314 58.3045 115.035 57.4404C114.302 55.1713 113.578 52.9021 112.844 50.633C112.644 50.0133 112.434 49.3762 111.972 48.9137C111.256 48.1893 110.139 48.0933 109.126 48.0409C105.164 47.8315 101.211 47.6133 97.2484 47.4038C95.4505 47.3078 93.1901 47.6133 92.553 49.5857C91.8984 51.6017 92.4919 54.7611 92.998 56.7422V56.7248Z" fill="#E8E8E8"/>
</g>
<g style="mix-blend-mode:color-burn">
<path d="M47.1355 57.8943C46.577 62.6508 46.3588 67.3549 46.4286 71.963C50.7225 70.1651 53.6375 64.1606 53.1837 57.5452C52.8782 53.2076 51.1938 49.5333 48.8112 47.3689C48.1218 50.7552 47.5545 54.2724 47.1355 57.8943Z" fill="#E8E8E8"/>
</g>
<path d="M46.6033 69.2924C51.8224 68.5418 55.6276 61.8653 55.1039 54.3684C54.5803 46.8714 49.9285 41.408 44.7182 42.1499C39.4991 42.9004 35.694 49.577 36.2176 57.0739C36.7413 64.5708 41.393 70.043 46.6033 69.2924Z" fill="#C7776E"/>
<g style="mix-blend-mode:color-burn">
<path d="M39.9094 56.5502C39.6476 52.8236 41.5415 49.4984 44.1335 49.1319C46.3765 48.8089 48.4013 50.7988 49.0733 53.7487C46.5423 54.2025 44.7096 57.4666 44.9627 61.1322C44.9976 61.6384 45.0761 62.1184 45.1809 62.5809C45.1372 62.5809 45.1023 62.6071 45.0587 62.6158C42.4666 62.9911 40.1538 60.2681 39.892 56.5415L39.9094 56.5502Z" fill="#919191"/>
</g>
<path d="M89.2883 65.9061C87.9705 64.4661 87.9966 62.6595 88.0752 60.8791C88.1625 58.8805 88.1625 56.4891 89.3581 54.7349C86.705 54.7349 84.0518 54.7349 81.3987 54.7349C82.0794 54.7349 82.5856 62.1096 82.5856 62.4762C82.5594 64.8152 81.4161 66.4821 79.0597 67.381C76.5811 68.3236 73.5003 71.0204 76.0836 73.4379C76.8429 74.1449 77.864 74.555 78.8851 74.8692C82.1667 75.8729 85.7275 76.0475 89.1399 75.5063C90.8767 75.2358 92.6135 74.7645 94.071 73.8481C94.6383 73.4903 95.1794 73.0539 95.4499 72.4779C95.9387 71.4393 95.4499 70.1913 94.6034 69.3709C93.7568 68.5505 92.6222 68.0531 91.54 67.5207C90.6062 67.0581 89.8556 66.5345 89.2796 65.9061H89.2883Z" fill="url(#paint1_linear_1063_3534)"/>
<path d="M113.43 50.0395C113.43 50.0395 99.3609 48.6693 92.4139 49.8388C92.152 47.2118 92.2655 44.5412 92.7542 41.9404C98.0431 40.1425 103.891 40.4305 108.856 42.9877C110.131 43.6422 111.361 44.4539 112.217 45.5972C113.072 46.7405 113.43 50.0395 113.43 50.0395Z" fill="#000446"/>
<path d="M98.8458 64.1169C97.397 63.9598 95.8872 63.5235 94.8835 62.258C93.7228 60.7743 92.2653 54.604 94.4471 53.7138C96.053 53.0592 98.4967 53.4868 100.164 53.5741C100.295 53.5828 100.417 53.5916 100.548 53.6003C102.572 53.7225 104.58 54.0018 106.57 54.4381C108.01 54.7523 109.441 55.1538 110.846 55.6425C111.605 55.9044 112.443 56.2971 112.958 56.9604C113.185 57.2571 113.351 57.5975 113.421 58.0077C114.407 63.6893 101.42 64.4049 98.8458 64.1169Z" fill="white"/>
<path d="M107.599 57.3095C107.599 59.858 105.479 61.9264 102.852 61.9264C100.225 61.9264 98.0952 59.858 98.0952 57.3095C98.0952 56.2099 98.4967 55.1975 99.16 54.4033L100.146 55.1451L99.5702 53.9756C99.6225 53.9233 99.6836 53.8709 99.7447 53.8273L101.106 55.6164L100.548 53.6003C102.572 53.7225 104.58 54.0018 106.57 54.4382C107.215 55.2237 107.599 56.2186 107.599 57.3095Z" fill="url(#paint2_linear_1063_3534)"/>
<g style="mix-blend-mode:color-burn">
<path d="M78.2143 56.7248C77.6034 59.1248 76.2594 61.4376 74.1211 62.6769C71.6861 64.0908 69.4781 64.7454 66.694 64.3177C64.2067 63.9337 62.6706 63.6457 60.2618 62.9213C59.2495 62.6158 56.4043 61.0711 55.9854 60.1023C55.6188 59.2645 55.8981 58.3045 56.1774 57.4404C56.9105 55.1713 57.6349 52.9021 58.368 50.633C58.5687 50.0133 58.7782 49.3762 59.2407 48.9137C59.9564 48.1893 61.0735 48.0933 62.0859 48.0409C66.0482 47.8315 70.0017 47.6133 73.964 47.4038C75.7619 47.3078 78.0223 47.6133 78.6594 49.5857C79.314 51.6017 78.7205 54.7611 78.2143 56.7422V56.7248Z" fill="#E8E8E8"/>
</g>
<path d="M57.7915 50.0395C57.7915 50.0395 71.8602 48.6693 78.8073 49.8388C79.0692 47.2118 78.9557 44.5412 78.467 41.9404C73.1781 40.1425 67.3307 40.4305 62.3647 42.9877C61.0905 43.6422 59.8599 44.4539 59.0046 45.5972C58.1493 46.7405 57.7915 50.0395 57.7915 50.0395Z" fill="#000446"/>
<path d="M72.3758 64.1169C73.8246 63.9598 75.3344 63.5235 76.3381 62.258C77.4989 60.7743 78.9564 54.604 76.7745 53.7138C75.1686 53.0592 72.7249 53.4868 71.058 53.5741C70.9271 53.5828 70.8049 53.5916 70.674 53.6003C68.6492 53.7225 66.6419 54.0018 64.652 54.4381C63.2119 54.7523 61.7806 55.1538 60.3755 55.6425C59.6162 55.9044 58.7784 56.2971 58.2634 56.9604C58.0365 57.2571 57.8707 57.5975 57.8009 58.0077C56.8147 63.6893 69.8012 64.4049 72.3758 64.1169Z" fill="white"/>
<path d="M63.6216 57.3095C63.6216 59.858 65.7424 61.9264 68.3693 61.9264C70.9963 61.9264 73.1258 59.858 73.1258 57.3095C73.1258 56.2099 72.7244 55.1975 72.0611 54.4033L71.0749 55.1451L71.6509 53.9756C71.5985 53.9233 71.5374 53.8709 71.4763 53.8273L70.1148 55.6164L70.6734 53.6003C68.6486 53.7225 66.6413 54.0018 64.6514 54.4382C64.0056 55.2237 63.6216 56.2186 63.6216 57.3095Z" fill="url(#paint3_linear_1063_3534)"/>
<path d="M89.8654 86.1888C90.7032 84.9321 92.0385 83.9197 93.5397 83.8324C94.3077 83.7888 95.1368 83.9808 95.8175 83.6142C96.6641 83.1604 96.9172 82.0346 97.659 81.4236C98.7238 80.5509 100.347 81.0396 101.508 81.7815C102.677 82.5146 103.812 83.5008 105.191 83.5357C103.768 86.4943 101.255 88.9031 98.2438 90.2035C95.9048 91.2072 92.7804 91.7832 90.2756 91.085C87.6137 90.3519 88.6261 88.0129 89.8567 86.1801L89.8654 86.1888Z" fill="url(#paint4_linear_1063_3534)"/>
<path d="M104.44 84.1205C104.676 84.0594 104.947 84.007 105.165 84.1205C105.409 84.2426 105.523 84.5219 105.601 84.7837C106.125 86.6165 105.75 88.65 104.772 90.2908C103.803 91.9316 102.276 93.1971 100.565 94.0611C98.7763 94.96 96.7428 95.44 94.753 95.1782C93.0598 94.9513 87.4044 92.5599 89.8568 90.2384C90.9827 89.1737 92.8067 88.4842 94.1944 87.8122C95.713 87.0791 97.2752 86.4158 98.8636 85.8311C100.688 85.159 102.555 84.5917 104.449 84.1292L104.44 84.1205Z" fill="url(#paint5_linear_1063_3534)"/>
<path d="M95.3986 87.0965C97.5368 86.3983 99.7798 86.0143 101.831 85.1067C103.882 84.199 105.81 82.6368 106.413 80.4724C107.006 81.764 106.439 83.3612 105.418 84.3561C104.397 85.351 103.009 85.8572 101.647 86.2936C97.8859 87.4893 94.1854 88.746 90.5024 90.0639C91.4537 88.5016 93.7403 87.6376 95.3986 87.0965Z" fill="#C7776E"/>
<g style="mix-blend-mode:color-burn">
<path d="M95.3986 87.0965C97.5368 86.3983 99.7798 86.0143 101.831 85.1067C103.882 84.199 105.81 82.6368 106.413 80.4724C107.006 81.764 106.439 83.3612 105.418 84.3561C104.397 85.351 103.009 85.8572 101.647 86.2936C97.8859 87.4893 94.1854 88.746 90.5024 90.0639C91.4537 88.5016 93.7403 87.6376 95.3986 87.0965Z" fill="#919191"/>
</g>
<path d="M59.7378 27.5313C62.775 24.049 66.7634 21.2649 71.2843 20.2875C75.8051 19.3187 80.8583 20.3398 84.2271 23.5079C85.1697 24.3894 86.1036 25.4891 87.3952 25.5676C88.8789 25.6549 90.0484 24.3196 90.703 22.9755C91.3575 21.6402 91.8026 20.1216 92.9372 19.1616C95.1278 17.3114 98.4879 18.542 100.879 20.1304C111.466 27.1473 117.706 40.2211 116.51 52.8672C120.708 47.3776 125.081 41.3906 125.264 34.4871C125.465 26.868 120.385 20.0169 114.354 15.3564C105.854 8.76716 95.1627 5.29361 84.4279 4.6565C78.8772 4.32486 73.1607 4.75251 68.0551 6.96056C59.2141 10.7832 53.4453 19.2663 48.1738 27.3218C45.9571 30.6994 43.6443 34.5744 44.4996 38.5279C45.093 41.2596 47.1091 43.4241 48.8982 45.5798C49.6662 46.5049 51.7609 50.9821 52.7907 49.673C53.1573 49.2104 52.6423 46.2518 52.6685 45.5361C52.7209 44.2095 52.8692 42.8917 53.1049 41.5826C54.0213 36.4246 56.2904 31.4936 59.7378 27.54V27.5313Z" fill="#000446"/>
<path d="M67.3828 128.945L85.3702 144.715L104.361 128.945L152.371 152.361C152.371 152.361 122.139 183.605 88.6081 183.963C55.0858 184.321 15.8818 154.351 15.8818 154.351L67.3741 128.945H67.3828Z" fill="#0A1775"/>
</g>
<defs>
<linearGradient id="paint0_linear_1063_3534" x1="85.362" y1="116.255" x2="85.1613" y2="145.71" gradientUnits="userSpaceOnUse">
<stop stop-color="#964138"/>
<stop offset="1" stop-color="#C7776E"/>
</linearGradient>
<linearGradient id="paint1_linear_1063_3534" x1="85.134" y1="78.273" x2="85.9457" y2="55.1102" gradientUnits="userSpaceOnUse">
<stop stop-color="#964138"/>
<stop offset="0.07" stop-color="#A55148"/>
<stop offset="0.18" stop-color="#B46259"/>
<stop offset="0.31" stop-color="#BF6E65"/>
<stop offset="0.49" stop-color="#C5756C"/>
<stop offset="1" stop-color="#C7776E"/>
</linearGradient>
<linearGradient id="paint2_linear_1063_3534" x1="103.934" y1="62.0049" x2="100.871" y2="48.7478" gradientUnits="userSpaceOnUse">
<stop stop-color="#5F0030"/>
<stop offset="1" stop-color="#C7776E"/>
</linearGradient>
<linearGradient id="paint3_linear_1063_3534" x1="67.2871" y1="62.0049" x2="70.3505" y2="48.7478" gradientUnits="userSpaceOnUse">
<stop stop-color="#5F0030"/>
<stop offset="1" stop-color="#C7776E"/>
</linearGradient>
<linearGradient id="paint4_linear_1063_3534" x1="95.8612" y1="84.0681" x2="100.853" y2="96.0858" gradientUnits="userSpaceOnUse">
<stop stop-color="#964138"/>
<stop offset="0.07" stop-color="#A55148"/>
<stop offset="0.18" stop-color="#B46259"/>
<stop offset="0.31" stop-color="#BF6E65"/>
<stop offset="0.49" stop-color="#C5756C"/>
<stop offset="1" stop-color="#C7776E"/>
</linearGradient>
<linearGradient id="paint5_linear_1063_3534" x1="102.712" y1="91.2159" x2="89.8045" y2="84.8012" gradientUnits="userSpaceOnUse">
<stop stop-color="#964138"/>
<stop offset="0.07" stop-color="#A55148"/>
<stop offset="0.18" stop-color="#B46259"/>
<stop offset="0.31" stop-color="#BF6E65"/>
<stop offset="0.49" stop-color="#C5756C"/>
<stop offset="1" stop-color="#C7776E"/>
</linearGradient>
</defs>
</svg>
