<svg width="172" height="173" viewBox="0 0 172 173" fill="none" xmlns="http://www.w3.org/2000/svg">
<circle cx="85.1879" cy="91.8135" r="80.226" fill="white" fill-opacity="0.22"/>
<circle cx="85.1879" cy="91.8135" r="79.2133" stroke="white" stroke-opacity="0.1" stroke-width="2.02539"/>
<mask id="mask0_1064_3690" style="mask-type:alpha" maskUnits="userSpaceOnUse" x="0" y="0" width="172" height="173">
<circle cx="86.1006" cy="86.2986" r="85.752" fill="#D9D9D9"/>
</mask>
<g mask="url(#mask0_1064_3690)">
<mask id="mask1_1064_3690" style="mask-type:luminance" maskUnits="userSpaceOnUse" x="-9" y="-4" width="187" height="187">
<path d="M84.1109 182.205C135.422 182.205 177.018 140.609 177.018 89.2975C177.018 37.9862 135.422 -3.60974 84.1109 -3.60974C32.7996 -3.60974 -8.79639 37.9862 -8.79639 89.2975C-8.79639 140.609 32.7996 182.205 84.1109 182.205Z" fill="white"/>
</mask>
<g mask="url(#mask1_1064_3690)">
<path d="M65.7389 146.943C65.9689 146.321 66.497 145.87 67.008 145.452C71.9395 141.347 76.9989 137.165 83.0121 134.899C87.6541 133.153 92.6452 132.634 97.5171 131.688C102.381 130.743 107.338 129.278 111.077 126.016C113.172 124.185 114.978 121.749 117.678 121.093C120.701 120.36 123.964 122.353 125.241 125.198C126.519 128.034 126.042 131.441 124.585 134.184C123.129 136.935 120.795 139.115 118.325 141.006C107.781 149.064 94.3572 152.454 81.1468 153.723C78.3361 153.995 75.4657 154.174 72.7232 153.493C70.6449 152.973 64.6572 149.898 65.756 146.943H65.7389Z" fill="#000446"/>
<path d="M85.8484 15.5287C86.1039 14.2596 86.2828 12.718 85.3033 11.8748C84.9711 11.5852 84.5453 11.4319 84.1449 11.2445C83.3528 10.8782 82.5948 10.3928 81.7345 10.2139C80.8828 10.035 79.8437 10.2735 79.4348 11.0401C80.1162 10.7079 80.1077 9.68582 79.6989 9.04702C79.29 8.40822 78.6257 7.97382 78.1828 7.36057C77.5951 6.55994 77.4332 5.46122 77.7654 4.52431C78.0891 3.5874 78.4213 2.64198 78.7449 1.70507C79.2474 1.424 79.9118 1.44955 80.3973 1.7647C80.8402 2.05429 81.0957 2.53976 81.3938 2.97415C81.6919 3.40853 82.0837 3.84292 82.6118 3.91106C83.1313 3.9792 83.7191 3.46816 83.5402 2.98267C83.6509 3.18709 83.7702 3.3915 83.8809 3.5874C84.5027 3.40001 85.1329 3.8344 85.5417 4.33693C85.9506 4.83945 86.2658 5.44417 86.8024 5.79339C87.3475 6.1426 88.2418 6.06595 88.4462 5.4527C88.5058 6.2874 88.5739 7.12209 88.6336 7.94827C89.1276 7.94827 89.6131 7.94827 90.1071 7.94827C89.6216 8.49338 89.6131 9.39623 90.09 9.94986C90.567 10.5035 91.4613 10.6313 92.0746 10.2309C92.2705 11.6278 92.4663 13.0246 92.6708 14.4129C93.0285 13.936 93.8036 14.6259 93.6929 15.2051C93.5821 15.7928 93.0881 16.2271 92.9093 16.7978C92.7304 17.3685 93.2755 18.1776 93.7781 17.854C92.5345 18.6546 93.7439 19.7789 91.7083 19.9492C91.0269 20.0003 89.3661 19.2253 88.8295 18.7994C87.1856 17.5133 87.0238 16.2357 88.3269 14.43C87.4922 14.7536 86.6746 15.1369 85.8569 15.5032L85.8484 15.5287Z" fill="#FA6857"/>
<path d="M107.611 25.477C108.113 24.2845 108.846 22.9132 110.132 22.777C110.575 22.7258 111.009 22.8366 111.443 22.9218C112.304 23.0751 113.206 23.1006 114.007 23.4328C114.816 23.7735 115.532 24.5486 115.438 25.4173C115.072 24.7615 115.651 23.9183 116.349 23.6287C117.048 23.3306 117.84 23.3476 118.555 23.1006C119.492 22.777 120.25 21.9593 120.506 20.9968C120.77 20.0344 121.034 19.0804 121.298 18.118C121.042 17.5984 120.48 17.2407 119.901 17.2322C119.373 17.2237 118.879 17.4706 118.393 17.6665C117.899 17.8539 117.329 17.9902 116.86 17.7517C116.392 17.5132 116.196 16.7637 116.622 16.4571C116.409 16.5593 116.205 16.6615 115.992 16.7637C115.591 16.2612 114.816 16.2612 114.194 16.44C113.573 16.6189 112.976 16.9426 112.329 16.9255C111.682 16.9085 110.992 16.3378 111.162 15.7161C110.634 16.3634 110.115 17.0192 109.587 17.6665C109.178 17.394 108.777 17.1129 108.369 16.8404C108.462 17.5643 107.951 18.3139 107.244 18.5013C106.537 18.6886 105.728 18.2798 105.456 17.6069C104.502 18.646 103.548 19.6852 102.594 20.7243C102.568 20.1281 101.546 20.2558 101.299 20.8009C101.061 21.346 101.222 21.9934 101.044 22.5555C100.865 23.1262 99.9619 23.4839 99.732 22.9388C100.294 24.3016 98.6673 24.54 100.252 25.8347C100.78 26.2691 102.585 26.5672 103.275 26.5246C105.362 26.3968 106.222 25.4344 106.163 23.2028C106.665 23.9438 107.116 24.7189 107.585 25.4855L107.611 25.477Z" fill="#FA6857"/>
<path d="M91.802 8.39117C92.3471 6.10853 93.0626 3.86845 93.9484 1.69653C94.5957 1.24511 95.3537 0.895902 96.1459 0.904419C96.938 0.921454 97.7556 1.37287 98.0112 2.12239C98.2752 2.87192 97.7812 3.83439 96.9976 3.91957C97.8664 3.70663 98.6074 4.68611 98.65 5.58043C98.6925 6.47476 98.3263 7.33501 98.2752 8.22082C98.2411 8.92776 98.403 9.62619 98.403 10.3331C98.403 12.5562 96.8784 14.2426 95.7967 16.0397C94.749 17.7773 94.4594 19.2167 94.0676 21.1076C90.9929 18.876 89.4598 11.4063 91.802 8.38265V8.39117Z" fill="#FA6857"/>
<path d="M103.599 13.8508C105.601 12.6243 107.696 11.5596 109.859 10.6568C110.634 10.7931 111.418 11.0827 111.963 11.6618C112.508 12.2325 112.764 13.1353 112.414 13.8423C112.065 14.5577 111.035 14.8899 110.421 14.3959C111.179 14.8644 111.009 16.0738 110.413 16.7382C109.808 17.394 108.939 17.7432 108.275 18.3394C107.747 18.8079 107.372 19.4211 106.87 19.9152C105.294 21.4823 103.02 21.5845 100.984 22.0871C99.0166 22.564 97.7901 23.3732 96.1718 24.4379C95.5927 20.6817 99.8087 14.3278 103.599 13.8678V13.8508Z" fill="#FA6857"/>
<path d="M95.5667 20.1025C97.0232 19.8555 98.4627 19.4637 99.8425 18.9271C99.834 18.5864 99.8169 18.2372 99.8084 17.8965C100.507 17.7432 101.026 17.0022 100.941 16.2868C101.546 16.7297 102.347 15.9801 102.542 15.2647C102.747 14.5407 102.789 13.6634 103.42 13.2631C103.786 13.0246 104.331 12.9735 104.51 12.5732C104.723 12.0707 104.152 11.5937 104.067 11.0571C103.965 10.3928 104.595 9.8732 105.106 9.4303C106.299 8.41674 107.21 6.89212 106.971 5.35048C106.733 3.80884 104.927 2.53977 103.539 3.25522C103.105 3.47668 102.772 3.84292 102.44 4.20916C101.222 5.56342 99.9958 6.90914 98.7778 8.2634C96.5463 10.7249 94.5276 12.9224 93.2074 16.0483C92.773 17.0704 91.6403 19.2167 92.2876 20.2984C92.969 21.4397 95.0898 21.3972 95.5667 20.111V20.1025Z" fill="#FA6857"/>
<path d="M82.3652 23.1688C83.217 23.041 89.4006 16.6871 89.4006 16.6871C89.4006 16.6871 102.611 19.7022 103.446 24.2334C104.272 28.7561 99.7662 34.3606 99.7662 34.3606L82.3652 23.1688Z" fill="#000446"/>
<path d="M91.5125 153.689H65.9605C65.9605 153.689 70.8324 127.566 65.9605 94.4419C64.6744 85.6776 92.6624 85.6435 91.5125 94.4419C87.9267 121.927 91.5125 153.689 91.5125 153.689Z" fill="#C7776E"/>
<path d="M91.5125 153.689H65.9605C65.9605 153.689 70.8324 127.566 65.9605 94.4419C64.6744 85.6776 92.6624 85.6435 91.5125 94.4419C87.9267 121.927 91.5125 153.689 91.5125 153.689Z" fill="url(#paint0_linear_1064_3690)"/>
<path d="M98.7098 100.336C96.6998 106.213 91.6234 110.719 85.8657 113.044C80.1079 115.378 73.72 115.727 67.5279 115.19C58.1247 114.364 48.6193 111.366 41.6351 105.003C34.6594 98.6495 30.6818 88.5394 33.2455 79.4514C35.0938 72.9101 39.9231 67.689 44.5906 62.7404C45.0165 62.289 45.4509 61.8376 45.8682 61.3776C47.4354 59.7253 49.0026 58.0644 50.5613 56.395C55.6887 50.9439 60.8077 45.4928 65.9777 40.0842C70.8496 34.9824 76.3859 28.7647 84.1537 29.5227C103.471 31.4051 95.0729 54.9215 95.1155 66.5306C95.1581 77.9949 102.415 89.4849 98.7098 100.336Z" fill="#C7776E"/>
<g style="mix-blend-mode:color-burn">
<path d="M99.4252 74.6817C99.4252 78.5401 99.0504 82.3048 98.3605 85.9246C93.727 83.6846 91.2144 78.3868 92.6113 73.2508C93.5311 69.8865 95.933 67.3057 98.9226 66.0536C99.2633 68.8559 99.4252 71.7433 99.4252 74.6903V74.6817Z" fill="#E8E8E8"/>
</g>
<path d="M98.5138 83.7867C92.6965 82.2025 89.264 76.1978 90.8482 70.3804C92.4324 64.5631 98.4371 61.1306 104.254 62.7148C110.072 64.2991 113.504 70.3038 111.92 76.1211C110.336 81.9385 104.331 85.371 98.5138 83.7867Z" fill="#C7776E"/>
<g style="mix-blend-mode:color-burn">
<path d="M107.806 74.9969C108.59 72.101 106.886 69.1199 103.999 68.3278C101.503 67.6464 98.9396 68.8303 97.7812 71.0363C100.592 71.8795 102.236 74.801 101.461 77.6543C101.359 78.0461 101.197 78.4123 101.018 78.7615C101.06 78.7786 101.103 78.7956 101.146 78.8126C104.042 79.6048 107.023 77.8928 107.815 75.0054L107.806 74.9969Z" fill="#919191"/>
</g>
<g style="mix-blend-mode:color-burn">
<path d="M77.5187 84.5448C74.7505 89.1697 69.9042 92.4914 64.5894 93.4113C59.283 94.3312 53.6105 92.8236 49.437 89.4167V89.7489C49.437 94.6804 54.2238 98.394 58.9679 99.7738C63.7036 101.154 69.1121 99.9527 72.8256 96.7076C76.5392 93.4624 78.2426 89.4167 77.5102 84.5363L77.5187 84.5448Z" fill="#919191"/>
</g>
<path d="M90.4649 55.9776C87.4242 52.4429 83.5658 49.6322 79.273 47.8265C78.2339 47.3921 77.0245 47.0174 76.0194 47.5369C75.3125 47.9032 74.8866 48.6271 74.5034 49.317C73.1576 51.6934 71.8204 54.0697 70.4746 56.4461C72.1185 58.5839 74.5629 59.2227 77.1863 59.8615C79.503 60.4237 81.726 61.3691 83.7447 62.6382C84.5964 63.1833 85.5504 63.8136 86.5384 63.5836C87.2794 63.4133 87.8159 62.8 88.2588 62.1782C89.4002 60.56 90.1071 57.9281 90.4734 55.9861L90.4649 55.9776Z" fill="#FA6857"/>
<g style="mix-blend-mode:color-burn">
<path d="M78.166 70.687C78.1575 70.7296 78.1405 70.7807 78.132 70.8233C78.1235 70.917 78.132 71.0022 78.166 71.0873C78.1916 71.1299 78.2086 71.164 78.2342 71.1981C78.2768 71.2577 78.3279 71.3003 78.3875 71.3258C78.413 71.3429 78.4471 71.3429 78.4726 71.3599C78.4726 71.3599 78.4726 71.3599 78.4641 71.3599C78.4641 71.3599 78.4812 71.3599 78.4897 71.3684C78.4897 71.3684 78.4897 71.3684 78.4812 71.3684C78.4897 71.3684 78.5067 71.3769 78.5152 71.3769C78.5578 71.394 78.5919 71.4195 78.6345 71.428C78.6771 71.428 78.7282 71.428 78.7708 71.428C78.8389 71.428 78.8985 71.394 78.9581 71.3599C79.0178 71.3344 79.0689 71.2918 79.1114 71.2322C79.154 71.1725 79.1881 71.1129 79.1966 71.0448C79.2222 70.9766 79.2222 70.9085 79.2136 70.8403C79.2051 70.7466 79.1625 70.653 79.1029 70.5848C79.0688 70.5508 79.0433 70.5252 79.0092 70.4911C78.9922 70.4741 78.9326 70.4486 78.9411 70.4571C78.9666 70.4741 78.8985 70.4315 78.8815 70.423C78.8389 70.4145 78.7878 70.3974 78.7452 70.3889C78.7026 70.3889 78.5919 70.3889 78.6004 70.3889C78.4897 70.406 78.4301 70.44 78.3449 70.4996C78.2683 70.5593 78.2172 70.6274 78.1831 70.7126L78.166 70.687Z" fill="#E8E8E8"/>
<path d="M76.309 74.0343C76.309 74.0343 76.3005 74.0769 76.292 74.1025C76.292 74.1451 76.292 74.1962 76.309 74.2388C76.3176 74.2558 76.3346 74.2814 76.3431 74.2984C76.3601 74.324 76.3857 74.3495 76.4198 74.3665C76.4368 74.3751 76.4538 74.375 76.4623 74.3836C76.4623 74.3836 76.4624 74.3836 76.4709 74.3836C76.4709 74.3836 76.4794 74.3836 76.4879 74.3836C76.5049 74.3836 76.522 74.4091 76.5475 74.4091C76.5731 74.4091 76.5901 74.4091 76.6157 74.4091C76.6497 74.4091 76.6838 74.3921 76.7093 74.3751C76.7434 74.358 76.769 74.341 76.786 74.3069C76.8116 74.2814 76.8201 74.2473 76.8286 74.2132C76.8371 74.1792 76.8456 74.1451 76.8286 74.111C76.8286 74.0599 76.803 74.0173 76.769 73.9832C76.7519 73.9662 76.7349 73.9492 76.7179 73.9321C76.7093 73.9321 76.6753 73.9066 76.6838 73.9151C76.6923 73.9151 76.6582 73.8981 76.6497 73.8981C76.6242 73.8981 76.6072 73.8896 76.5816 73.881C76.5561 73.881 76.5049 73.881 76.5049 73.881C76.4538 73.881 76.4197 73.9066 76.3771 73.9321C76.3431 73.9577 76.309 74.0003 76.292 74.0429L76.309 74.0343Z" fill="#E8E8E8"/>
<path d="M66.7866 71.2322C66.7866 71.2322 66.778 71.2748 66.7695 71.3003C66.7695 71.3429 66.7695 71.394 66.7866 71.4366C66.7951 71.4536 66.8121 71.4792 66.8206 71.4962C66.8377 71.5218 66.8718 71.5473 66.8973 71.5644C66.9143 71.5729 66.9314 71.5729 66.9399 71.5814C66.9399 71.5814 66.9399 71.5814 66.9484 71.5814C66.9484 71.5814 66.9569 71.5814 66.9654 71.5814C66.9824 71.5814 66.9995 71.607 67.025 71.607C67.0506 71.607 67.0676 71.607 67.0932 71.607C67.1273 71.607 67.1613 71.5899 67.1869 71.5729C67.2209 71.5558 67.2465 71.5388 67.2636 71.5047C67.2891 71.4792 67.2976 71.4451 67.3061 71.411C67.3146 71.377 67.3232 71.3429 67.3061 71.3088C67.3061 71.2577 67.2806 71.2152 67.255 71.1811C67.238 71.1641 67.221 71.147 67.2039 71.13C67.2039 71.13 67.1613 71.1044 67.1698 71.1129C67.1783 71.1129 67.1443 71.0959 67.1358 71.0959C67.1358 71.0959 67.0932 71.0874 67.0676 71.0789C67.0421 71.0789 66.991 71.0789 66.991 71.0789C66.9399 71.0789 66.9058 71.1044 66.8632 71.13C66.8291 71.1555 66.7951 71.1981 66.7781 71.2407L66.7866 71.2322Z" fill="#E8E8E8"/>
<path d="M69.3422 76.0359C69.3422 76.0359 69.3337 76.0785 69.3252 76.1041C69.3252 76.1467 69.3252 76.1978 69.3422 76.2404C69.3508 76.2574 69.3678 76.2829 69.3763 76.3C69.3933 76.3255 69.4274 76.3511 69.453 76.3681C69.47 76.3766 69.487 76.3766 69.4956 76.3851C69.4956 76.3851 69.4956 76.3851 69.5041 76.3851C69.5041 76.3851 69.5126 76.3851 69.5211 76.3851C69.5381 76.3851 69.5552 76.4107 69.5807 76.4107C69.6063 76.4107 69.6233 76.4107 69.6489 76.4107C69.6829 76.4107 69.717 76.3937 69.7425 76.3766C69.7766 76.3596 69.8022 76.3426 69.8192 76.3085C69.8448 76.2829 69.8533 76.2489 69.8618 76.2148C69.8703 76.1807 69.8788 76.1467 69.8618 76.1126C69.8618 76.0615 69.8362 76.0189 69.8107 75.9848C69.7937 75.9678 69.7766 75.9508 69.7596 75.9337C69.7596 75.9337 69.717 75.9082 69.7255 75.9167C69.734 75.9167 69.7 75.8997 69.6914 75.8997C69.6914 75.8997 69.6488 75.8911 69.6233 75.8826C69.5977 75.8826 69.5467 75.8826 69.5552 75.8826C69.5041 75.8826 69.47 75.9082 69.4274 75.9337C69.3933 75.9593 69.3593 76.0019 69.3422 76.0445V76.0359Z" fill="#E8E8E8"/>
<path d="M71.1474 73.123C71.207 73.0549 71.2752 72.9952 71.3603 72.9612C71.4029 72.9527 71.4455 72.9356 71.4881 72.9271C71.5817 72.9101 71.6669 72.9271 71.7606 72.9612L71.8202 72.9867C71.8884 73.0123 71.9395 73.0463 71.9906 73.1059C72.0417 73.1485 72.0843 73.1996 72.1013 73.2678C72.1269 73.3274 72.1439 73.3955 72.1354 73.4637C72.1354 73.5318 72.1354 73.6 72.1013 73.6681C72.0758 73.7107 72.0587 73.7448 72.0332 73.7874C71.9736 73.864 71.9054 73.9151 71.8202 73.9492C71.7777 73.9577 71.735 73.9747 71.6925 73.9832C71.5988 74.0003 71.5136 73.9833 71.42 73.9492L71.3603 73.9236C71.2922 73.8981 71.2411 73.864 71.19 73.8044C71.1389 73.7618 71.0963 73.7107 71.0792 73.6425C71.0537 73.5829 71.0367 73.5148 71.0452 73.4467C71.0452 73.3785 71.0452 73.3104 71.0792 73.2422C71.1048 73.1996 71.1218 73.1656 71.1474 73.123Z" fill="#E8E8E8"/>
<path d="M65.0407 67.229C65.0833 67.1779 65.1429 67.1353 65.2025 67.1183C65.2621 67.0927 65.3303 67.0757 65.3984 67.0842C65.4666 67.0842 65.5347 67.0842 65.6028 67.1183C65.6454 67.1439 65.6795 67.1609 65.7221 67.1865C65.7902 67.2461 65.8499 67.3142 65.8839 67.3994C65.8925 67.442 65.9095 67.4846 65.918 67.5271C65.9265 67.6208 65.918 67.706 65.8839 67.7997L65.8328 67.9189C65.8073 67.9871 65.7732 68.0467 65.7136 68.0893C65.671 68.1404 65.6114 68.183 65.5517 68.2C65.4921 68.2256 65.424 68.2426 65.3559 68.2341C65.2877 68.2341 65.2195 68.2341 65.1514 68.2C65.1088 68.1745 65.0748 68.1574 65.0322 68.1319C64.9641 68.0722 64.9044 68.0041 64.8704 67.9189C64.8619 67.8763 64.8448 67.8338 64.8363 67.7912C64.8192 67.6975 64.8363 67.6123 64.8704 67.5186L64.9215 67.3994C64.947 67.3312 64.9811 67.2801 65.0407 67.229Z" fill="#E8E8E8"/>
<path d="M78.3279 78.8381C78.3705 78.787 78.4216 78.7444 78.4897 78.7274C78.5323 78.7189 78.5749 78.7018 78.6174 78.6933C78.7111 78.6763 78.7963 78.6933 78.89 78.7274C78.9326 78.753 78.9667 78.77 79.0093 78.7956C79.0774 78.8552 79.137 78.9233 79.1711 79.0085L79.2051 79.0936C79.2307 79.1533 79.2478 79.2214 79.2392 79.2896C79.2392 79.3577 79.2392 79.4258 79.2051 79.494C79.1796 79.5621 79.1456 79.6132 79.0859 79.6643C79.0434 79.7154 78.9837 79.758 78.9241 79.775C78.8815 79.7836 78.8389 79.8006 78.7963 79.8091C78.7026 79.8261 78.6175 79.8091 78.5238 79.775C78.4812 79.7495 78.4471 79.7324 78.4045 79.7069C78.3364 79.6473 78.2768 79.5791 78.2427 79.494C78.2342 79.4684 78.2171 79.4429 78.2086 79.4088C78.1831 79.3492 78.1661 79.281 78.1746 79.2129C78.1746 79.1448 78.1746 79.0766 78.2086 79.0085C78.2342 78.9404 78.2683 78.8892 78.3279 78.8381Z" fill="#E8E8E8"/>
</g>
<g style="mix-blend-mode:color-burn">
<path d="M44.7015 63.7029C44.6674 63.6603 44.6419 63.6347 44.5908 63.6091C44.5908 63.6091 44.5482 63.5836 44.5226 63.5836C44.5056 63.5836 44.48 63.5751 44.4545 63.5751C44.4374 63.5751 44.4119 63.5836 44.4119 63.5836C44.4119 63.5836 44.3864 63.5836 44.3778 63.5836C44.3523 63.5921 44.3352 63.6006 44.3097 63.6091C44.2756 63.6432 44.233 63.6773 44.216 63.7199C44.199 63.7454 44.1904 63.7795 44.1904 63.8136C44.1904 63.8561 44.1904 63.8902 44.199 63.9243C44.199 63.9584 44.2245 63.9839 44.2501 64.0095C44.2671 64.035 44.2927 64.0606 44.3267 64.0776C44.3523 64.0776 44.3693 64.0861 44.3948 64.0946C44.4119 64.1032 44.4374 64.0946 44.4545 64.0946H44.5226C44.5226 64.0946 44.5908 64.0776 44.6248 64.0606C44.6419 64.0435 44.6589 64.0265 44.6759 64.018C44.7015 63.9839 44.727 63.9413 44.7356 63.8987C44.7356 63.8732 44.7356 63.8476 44.7356 63.8221C44.7356 63.7795 44.7185 63.7369 44.693 63.6943L44.7015 63.7029Z" fill="#E8E8E8"/>
<path d="M54.6157 64.2309C54.6157 64.2309 54.556 64.1627 54.5135 64.1372C54.4964 64.1372 54.4624 64.1202 54.4368 64.1116H54.3261C54.3261 64.1116 54.3005 64.1116 54.292 64.1116C54.2664 64.1202 54.2494 64.1372 54.2324 64.1457C54.2324 64.1457 54.1642 64.2053 54.1387 64.2479C54.1217 64.282 54.1132 64.316 54.1132 64.3501C54.1046 64.3842 54.1132 64.4183 54.1132 64.4523C54.1132 64.4864 54.1387 64.5205 54.1643 64.5375C54.1813 64.5716 54.2068 64.5886 54.2409 64.6057C54.2664 64.6057 54.2835 64.6227 54.309 64.6312C54.3261 64.6312 54.3516 64.6312 54.3687 64.6312H54.4368C54.4368 64.6312 54.505 64.6227 54.539 64.5971C54.5561 64.5801 54.5731 64.5716 54.5901 64.5546C54.6157 64.5205 54.6412 64.4779 54.6498 64.4353C54.6498 64.4097 54.6498 64.3927 54.6498 64.3672C54.6498 64.3161 54.6327 64.2735 54.6071 64.2309H54.6157Z" fill="#E8E8E8"/>
<path d="M50.6037 67.9104C50.5697 67.8678 50.5526 67.8422 50.5015 67.8167C50.4845 67.8167 50.4504 67.7997 50.4334 67.7911H50.3226C50.3226 67.7911 50.2971 67.7911 50.2801 67.7911C50.263 67.7997 50.2375 67.8167 50.2204 67.8252C50.1778 67.8508 50.1438 67.8848 50.1182 67.9274C50.1012 67.9615 50.0927 67.9956 50.0927 68.0296C50.0841 68.0637 50.0927 68.0978 50.0927 68.1318C50.0927 68.1659 50.1182 68.2 50.1438 68.217C50.1693 68.2511 50.1949 68.2681 50.2204 68.2851C50.246 68.2936 50.263 68.3022 50.2886 68.3107C50.3141 68.3107 50.3311 68.3022 50.3567 68.3022H50.3823C50.3823 68.3022 50.4078 68.3107 50.4248 68.3022C50.4589 68.3022 50.4845 68.3022 50.5185 68.2681C50.5356 68.2511 50.5526 68.2426 50.5696 68.2255C50.6037 68.1915 50.6207 68.1489 50.6292 68.1063C50.6292 68.0807 50.6292 68.0637 50.6292 68.0381C50.6292 67.987 50.6122 67.9445 50.5867 67.9019L50.6037 67.9104Z" fill="#E8E8E8"/>
<path d="M49.9142 64.6993C49.8886 64.6142 49.8375 64.5375 49.7693 64.4779C49.7353 64.4523 49.7012 64.4268 49.6586 64.4012C49.5734 64.3586 49.4883 64.3416 49.3946 64.3416H49.3349C49.2668 64.3416 49.1987 64.3671 49.1391 64.4012C49.0794 64.4268 49.0198 64.4608 48.9772 64.5119C48.9261 64.563 48.8921 64.6142 48.875 64.6823C48.8409 64.7419 48.8324 64.8101 48.841 64.8867C48.8495 64.9293 48.858 64.9804 48.8665 65.023C48.892 65.1082 48.9432 65.1848 49.0113 65.2445C49.0454 65.27 49.0879 65.2956 49.122 65.3211C49.2072 65.3637 49.2924 65.3807 49.3861 65.3807H49.4457C49.5138 65.3807 49.582 65.3552 49.6416 65.3211C49.7012 65.2956 49.7608 65.2615 49.8034 65.2018C49.8545 65.1507 49.8886 65.0997 49.9056 65.0315C49.9397 64.9719 49.9482 64.9037 49.9397 64.8271C49.9397 64.7845 49.9227 64.7334 49.9142 64.6908V64.6993Z" fill="#E8E8E8"/>
<path d="M57.6309 61.1732C57.6053 61.1136 57.5713 61.0539 57.5202 61.0114C57.469 60.9603 57.4179 60.9262 57.3498 60.9092C57.2902 60.8836 57.222 60.8666 57.1454 60.8751C57.1028 60.8751 57.0517 60.8921 57.0091 60.9006C56.9239 60.9262 56.8472 60.9773 56.7876 61.0454C56.7621 61.0795 56.7365 61.1221 56.711 61.1561C56.6684 61.2413 56.6514 61.3265 56.6514 61.4202V61.548C56.6514 61.6161 56.6769 61.6842 56.711 61.7438C56.7365 61.8035 56.7706 61.8631 56.8217 61.9057C56.8728 61.9568 56.9239 61.9908 56.9921 62.0079C57.0517 62.0334 57.1198 62.0505 57.1965 62.042C57.2391 62.042 57.2902 62.0249 57.3327 62.0164C57.4179 61.9908 57.4946 61.9397 57.5542 61.8716C57.5798 61.8375 57.6053 61.8035 57.6309 61.7609C57.6735 61.6757 57.6905 61.5905 57.6905 61.4968V61.3691C57.6905 61.3009 57.665 61.2328 57.6309 61.1732Z" fill="#E8E8E8"/>
<path d="M41.2346 67.689C41.209 67.6294 41.175 67.5697 41.1239 67.5271C41.0898 67.5016 41.0557 67.476 41.0131 67.4505C40.928 67.4079 40.8428 67.3909 40.7491 67.3909C40.7065 67.3909 40.6554 67.4079 40.6128 67.4164C40.5276 67.442 40.451 67.4931 40.3913 67.5612L40.3318 67.6294C40.2807 67.6805 40.2466 67.7316 40.2296 67.7997C40.1955 67.8593 40.1869 67.9275 40.1955 68.0041C40.1955 68.0723 40.2125 68.1404 40.2466 68.2C40.2721 68.2596 40.3062 68.3193 40.3573 68.3619C40.3914 68.3874 40.4254 68.413 40.468 68.4385C40.5532 68.4811 40.6384 68.4981 40.732 68.4981C40.7746 68.4981 40.8258 68.4811 40.8684 68.4726C40.9535 68.447 41.0301 68.3959 41.0898 68.3278C41.1068 68.3022 41.1324 68.2852 41.1494 68.2596C41.2005 68.2085 41.2346 68.1574 41.2516 68.0893C41.2771 68.0297 41.2942 67.9615 41.2857 67.8849C41.2857 67.8167 41.2687 67.7486 41.2346 67.689Z" fill="#E8E8E8"/>
</g>
<path d="M51.6257 66.2495C49.7093 66.8287 47.6567 67.0161 45.834 67.8593C44.0112 68.7025 42.393 70.4912 42.6229 72.4842C42.8359 74.3069 44.4627 75.6101 46.0043 76.5981C49.7434 78.9829 53.8232 80.8312 58.0734 82.0662C59.9131 82.6028 61.8721 83.0202 63.7374 82.6028C65.6112 82.1855 67.3658 80.7035 67.5277 78.7871C67.7747 75.8826 64.5977 73.9066 63.5927 71.1725C62.8516 69.1369 63.3882 66.8628 64.1037 64.8186C64.8191 62.7744 65.7219 60.7133 65.6794 58.5413C65.6538 57.0252 64.9043 54.2571 62.9539 54.7681C61.3185 55.2025 60.6797 58.1836 59.9643 59.4442C58.1501 62.6382 55.1264 65.1763 51.5917 66.241L51.6257 66.2495Z" fill="url(#paint1_linear_1064_3690)"/>
<path d="M54.9904 48.1161C58.3888 46.4893 61.7106 45.6801 64.6235 45.7653C65.3304 45.7909 66.0629 45.9186 66.1822 46.6426C66.2674 47.1536 66.0119 47.8435 65.7734 48.4908C64.9302 50.7309 64.0954 52.971 63.2522 55.211C61.2762 56.2587 59.8538 55.918 58.3547 55.5091C57.0346 55.1429 55.5185 55.1003 53.9002 55.3814C53.2103 55.5006 52.4267 55.6539 52.1456 55.1429C51.9327 54.7681 52.069 54.1208 52.2478 53.5076C52.7248 51.9063 53.9853 49.6918 54.9904 48.1076V48.1161Z" fill="#FA6857"/>
<path d="M64.683 43.4315C65.5007 43.176 66.3184 42.7927 67.1701 42.8949C68.1751 43.0142 68.9928 43.7722 69.9723 44.0107C70.9518 44.2492 72.2976 43.3804 71.8291 42.4861C72.8342 44.6665 76.5477 44.7176 77.6038 42.5627C77.9871 43.8233 79.5203 44.5899 80.7638 44.1385C81.5815 45.4246 83.4553 45.9015 84.784 45.1605C86.1212 46.37 87.4584 47.5709 88.7956 48.7804C90.6609 51.3782 92.5262 53.9845 94.3915 56.5823C94.9792 57.4 95.601 58.2517 96.4868 58.7202C97.3726 59.1971 98.6162 59.1716 99.255 58.3965C99.8938 57.6214 99.3912 56.1309 98.3862 56.1564C99.6553 55.5347 100.967 54.8618 101.793 53.7205C102.619 52.5792 102.764 50.8075 101.716 49.8536C102.5 49.6662 103.173 49.053 103.437 48.2949C102.841 47.869 102.253 47.4517 101.657 47.0344C102.849 46.4637 102.79 44.394 101.572 43.8829C102.849 42.5031 102.517 40.3227 101.972 38.517C101.061 35.4763 99.766 32.5464 98.1477 29.8208C97.4834 28.705 96.4953 27.4785 95.2007 27.6063C95.3285 27.1549 95.4648 26.7034 95.5925 26.2435C95.2944 25.9454 95.0048 25.6473 94.7067 25.3577C92.4922 22.8366 88.6594 22.7599 85.3036 22.8706C82.0925 22.9814 78.149 23.5946 77.0673 26.6183C76.1048 25.6303 74.4525 26.5501 73.4474 27.4956C70.3556 30.4 67.5023 33.5599 64.9301 36.9328C64.7682 37.1457 63.0562 37.4438 62.5793 37.9293C62.0427 38.4574 61.3528 39.8798 61.2931 40.6463C61.1313 42.7331 62.6389 44.0533 64.683 43.423V43.4315Z" fill="#FA6857"/>
<path d="M68.9502 39.0281C69.2483 40.3057 70.4408 41.3192 71.744 41.4129C70.7304 40.8934 70.1853 39.6072 70.5175 38.517C70.7389 37.776 72.1613 35.7063 70.5941 35.6552C69.2228 35.6041 68.7288 38.1167 68.9502 39.0366V39.0281Z" fill="#D95A4B"/>
<path d="M74.5544 39.7009C74.5204 41.0126 75.4062 42.2987 76.6412 42.7246C75.798 41.958 75.6021 40.5782 76.1983 39.6072C76.6071 38.9514 78.5065 37.3161 77.0074 36.8561C75.6958 36.4558 74.58 38.7555 74.5459 39.7009H74.5544Z" fill="#D95A4B"/>
<path d="M80.8744 39.9394C80.21 41.0722 80.3719 42.6224 81.2577 43.5933C80.8829 42.5202 81.3769 41.2085 82.3649 40.6463C83.0378 40.2631 85.4908 39.7435 84.392 38.6277C83.4296 37.6482 81.3513 39.1302 80.8744 39.9394Z" fill="#D95A4B"/>
<path d="M64.8961 39.9735C64.8364 40.8593 65.3219 41.7025 66.0374 41.9581C65.5604 41.464 65.4838 40.5356 65.8585 39.8628C66.114 39.4113 67.2639 38.253 66.4036 37.989C65.6456 37.7505 64.9301 39.3347 64.8961 39.9735Z" fill="#D95A4B"/>
<path d="M86.2574 43.9681C86.1978 44.8539 86.6832 45.6971 87.3987 45.9527C86.9217 45.4587 86.8451 44.5303 87.2198 43.8574C87.4754 43.406 88.6252 42.2476 87.765 41.9836C87.0069 41.7451 86.3 43.3293 86.2574 43.9596V43.9681Z" fill="#D95A4B"/>
<path d="M79.4947 28.5092C79.4351 29.395 79.9205 30.2382 80.636 30.4937C80.159 29.9997 80.0824 29.0713 80.4572 28.3984C80.7127 27.947 81.8625 26.7886 81.0023 26.5246C80.2442 26.2861 79.5373 27.8704 79.4947 28.5092Z" fill="#D95A4B"/>
<path d="M73.3538 33.9858C72.9279 34.7609 73.0046 35.7318 73.5327 36.2684C73.3197 35.6211 73.6434 34.7438 74.2737 34.3009C74.6995 34.0028 76.2327 33.4492 75.5683 32.8445C74.9892 32.3079 73.6689 33.4322 73.3538 33.9858Z" fill="#D95A4B"/>
<path d="M87.0323 31.4136C86.6064 32.1887 86.6746 33.1596 87.2112 33.6962C86.9983 33.0489 87.3219 32.1716 87.9522 31.7287C88.3781 31.4306 89.9112 30.877 89.2468 30.2723C88.6677 29.7357 87.3474 30.86 87.0323 31.4136Z" fill="#D95A4B"/>
<path d="M79.5543 35.2293C79.4946 36.1151 79.9801 36.9583 80.6956 37.2139C80.2186 36.7198 80.142 35.7915 80.5167 35.1186C80.7722 34.6672 81.922 33.5088 81.0618 33.2448C80.3038 33.0063 79.5968 34.5905 79.5543 35.2208V35.2293Z" fill="#D95A4B"/>
<path d="M85.2523 67.7741C82.6374 68.8047 79.7501 70.1079 76.9479 70.3378C75.7725 70.4315 74.5544 70.3634 73.3961 70.1079C71.7948 69.7502 70.3043 69.0177 69.1715 67.8508C69.0778 67.7571 68.9926 67.6634 68.9245 67.5612C67.1699 65.5085 66.7866 62.2293 68.5242 60.1852L69.2056 60.2107C74.8781 61.9483 80.3037 64.5035 85.2523 67.7741Z" fill="white"/>
<path d="M57.9372 57.3148C57.9117 58.3284 57.5454 59.376 56.9662 60.3215C56.0804 61.795 54.6836 63.0385 53.2612 63.5921C52.0943 64.0521 50.953 64.1287 49.8883 63.9243C48.8066 63.7199 47.8186 63.2173 46.9924 62.536C46.5836 62.2038 46.2174 61.812 45.8682 61.3776C47.4354 59.7252 49.0025 58.0644 50.5612 56.395C52.9205 56.4205 55.2457 56.642 57.4858 57.0593L57.9372 57.3148Z" fill="white"/>
<path d="M76.3005 68.1063C75.6531 69.2135 74.5714 69.912 73.396 70.1079C71.7948 69.7501 70.3043 69.0176 69.1714 67.8508C69.0778 67.7571 68.9925 67.6634 68.9244 67.5612C68.473 66.4369 68.5327 65.1252 69.1885 64.0009C69.2907 63.805 69.427 63.6432 69.5547 63.4814L70.8664 64.8612L70.1083 62.9192C71.3945 61.8375 73.2598 61.6075 74.7929 62.4933C76.7604 63.6262 77.4333 66.1388 76.3005 68.1063Z" fill="url(#paint2_linear_1064_3690)"/>
<path d="M56.9663 60.3214C56.0805 61.7949 54.6837 63.0385 53.2613 63.5921C52.0944 64.052 50.9531 64.1287 49.8884 63.9242C48.7301 62.6381 48.4745 60.7047 49.3944 59.1205C49.4966 58.9331 49.6329 58.7712 49.7606 58.6009L51.0723 59.9807L50.3143 58.0388C51.6004 56.9656 53.4657 56.7356 54.9988 57.6214C56.0465 58.2261 56.7364 59.2227 56.9663 60.3214Z" fill="url(#paint3_linear_1064_3690)"/>
<path d="M79.4777 149.949C84.0515 149.004 88.0887 146.423 91.9471 143.8C95.8054 141.177 99.6893 138.426 104.144 137.046C107.329 136.058 110.685 135.811 113.922 135.036C117.158 134.252 120.429 132.804 122.337 130.07C124.245 127.336 124.236 123.094 121.622 121.042C129.534 120.948 137.021 127.276 138.264 135.087C139.508 142.897 134.338 151.236 126.783 153.595C119.279 155.946 110.413 152.948 103.692 157.019C117.474 160.068 130.939 164.514 143.826 170.28C131.859 182.384 113.726 186.353 96.7083 185.85C79.6906 185.348 63.0477 181.004 46.1407 179.019C40.0508 178.304 33.731 177.844 28.3225 174.965C23.3994 172.35 19.6859 167.989 16.1001 163.731C30.9032 158.126 46.5922 154.873 62.4004 154.123C61.8893 154.149 63.8058 149.14 64.0698 148.74C65.6966 146.27 66.0203 146.449 68.1241 147.735C71.6843 149.907 75.3042 150.835 79.4862 149.967L79.4777 149.949Z" fill="#0A1775"/>
</g>
</g>
<defs>
<linearGradient id="paint0_linear_1064_3690" x1="78.728" y1="120.582" x2="78.5151" y2="152.181" gradientUnits="userSpaceOnUse">
<stop stop-color="#964138"/>
<stop offset="1" stop-color="#C7776E"/>
</linearGradient>
<linearGradient id="paint1_linear_1064_3690" x1="50.3567" y1="82.5347" x2="63.8397" y2="61.8205" gradientUnits="userSpaceOnUse">
<stop stop-color="#964138"/>
<stop offset="1" stop-color="#C7776E"/>
</linearGradient>
<linearGradient id="paint2_linear_1064_3690" x1="68.6348" y1="66.028" x2="76.8541" y2="66.028" gradientUnits="userSpaceOnUse">
<stop stop-color="#2EBAC4"/>
<stop offset="0.12" stop-color="#2A9BAA"/>
<stop offset="0.3" stop-color="#26788C"/>
<stop offset="0.47" stop-color="#235C74"/>
<stop offset="0.65" stop-color="#214864"/>
<stop offset="0.82" stop-color="#203C5A"/>
<stop offset="1" stop-color="#203957"/>
</linearGradient>
<linearGradient id="paint3_linear_1064_3690" x1="48.8408" y1="60.5514" x2="56.9663" y2="60.5514" gradientUnits="userSpaceOnUse">
<stop stop-color="#2EBAC4"/>
<stop offset="0.12" stop-color="#2A9BAA"/>
<stop offset="0.3" stop-color="#26788C"/>
<stop offset="0.47" stop-color="#235C74"/>
<stop offset="0.65" stop-color="#214864"/>
<stop offset="0.82" stop-color="#203C5A"/>
<stop offset="1" stop-color="#203957"/>
</linearGradient>
</defs>
</svg>
