<svg width="173" height="173" viewBox="0 0 173 173" fill="none" xmlns="http://www.w3.org/2000/svg">
<circle cx="85.6381" cy="91.8135" r="80.226" fill="white" fill-opacity="0.22"/>
<circle cx="85.6381" cy="91.8135" r="79.2133" stroke="white" stroke-opacity="0.1" stroke-width="2.02539"/>
<mask id="mask0_1064_3653" style="mask-type:alpha" maskUnits="userSpaceOnUse" x="0" y="0" width="173" height="173">
<circle cx="86.5508" cy="86.2986" r="85.752" fill="#D9D9D9"/>
</mask>
<g mask="url(#mask0_1064_3653)">
<mask id="mask1_1064_3653" style="mask-type:luminance" maskUnits="userSpaceOnUse" x="-9" y="-15" width="187" height="187">
<path d="M84.2056 171.205C135.517 171.205 177.113 129.609 177.113 78.2975C177.113 26.9862 135.517 -14.6097 84.2056 -14.6097C32.8943 -14.6097 -8.70166 26.9862 -8.70166 78.2975C-8.70166 129.609 32.8943 171.205 84.2056 171.205Z" fill="white"/>
</mask>
<g mask="url(#mask1_1064_3653)">
<path d="M132.967 140.219L27.4629 152.441L50.5194 24.8085H114.135L132.967 140.219Z" fill="#000446"/>
<path d="M50.4343 107.367C49.9233 119.462 50.8347 132.178 54.1309 142.314C57.87 153.804 64.2069 160.728 70.6375 165.14C82.5022 173.291 95.8659 174.211 107.398 164.272C110.686 161.435 113.94 157.492 115.762 151.249C117.917 143.855 117.687 134.503 116.512 126.25C115.345 117.997 113.326 110.331 112.032 102.155C110.26 90.9117 109.741 78.2975 106.019 69.218C102.126 59.7211 95.5081 56.459 89.4353 57.4725C83.3709 58.4861 77.6217 63.1196 71.8299 66.9353C69.0107 68.7921 66.1489 70.4615 63.2189 71.424C61.1236 72.1139 56.405 70.3934 54.7867 72.676C53.211 74.9076 52.7 84.2766 52.2315 87.8539C51.3883 94.2505 50.7069 100.749 50.4258 107.359L50.4343 107.367Z" fill="#00032E"/>
<path d="M109.817 18.1735C109.817 28.7095 97.5096 37.2524 82.3317 37.2524C67.1537 37.2524 54.8462 28.7095 54.8462 18.1735C54.8462 7.63756 67.1537 -0.905334 82.3317 -0.905334C97.5096 -0.905334 109.817 7.63756 109.817 18.1735Z" fill="#000446"/>
<path d="M95.4656 59.0142L101.104 114.155L93.5747 59.2441L95.4656 59.0142Z" fill="#00066B"/>
<path d="M70.782 59.2441L63.2441 114.155L68.8826 59.0142L70.782 59.2441Z" fill="#00066B"/>
<path d="M83.328 115.416C96.297 115.416 106.81 112.545 106.81 109.002C106.81 105.46 96.297 102.589 83.328 102.589C70.3591 102.589 59.8457 105.46 59.8457 109.002C59.8457 112.545 70.3591 115.416 83.328 115.416Z" fill="#FDC07A"/>
<path d="M105.456 71.3899L111.095 126.531L103.565 71.6199L105.456 71.3899Z" fill="#00066B"/>
<path d="M99.1025 128.414H66.5918C66.5918 128.414 72.7839 104.676 66.5918 74.5839C64.9565 66.6202 100.559 66.5861 99.1025 74.5839C94.5457 99.5568 99.1025 128.414 99.1025 128.414Z" fill="#C7776E"/>
<path d="M99.1025 128.414H66.5918C66.5918 128.414 72.7839 104.676 66.5918 74.5839C64.9565 66.6202 100.559 66.5861 99.1025 74.5839C94.5457 99.5568 99.1025 128.414 99.1025 128.414Z" fill="url(#paint0_linear_1064_3653)"/>
<path d="M60.7913 71.6199L53.2534 126.531L58.8919 71.3899L60.7913 71.6199Z" fill="#00066B"/>
<path d="M116.469 50.548C116.469 67.4038 99.2044 80.2565 89.2647 86.2527C85.0656 88.7908 79.8019 88.7908 75.6028 86.2527C65.6631 80.2565 48.3984 67.4123 48.3984 50.548C48.3984 26.8783 63.636 7.68866 82.4338 7.68866C101.232 7.68866 116.469 26.8783 116.469 50.548Z" fill="#C7776E"/>
<path d="M88.5834 36.8521C88.3194 36.2814 88.609 35.6085 89.2052 35.3956C90.4743 34.9442 91.7775 34.5183 93.1402 34.2202C94.8863 33.8369 96.7771 33.6836 98.5828 34.0839C100.397 34.4757 101.973 35.4382 103.284 36.571C104.605 37.7038 105.72 39.007 106.819 40.3016C105.55 39.1688 104.264 38.036 102.859 37.1416C101.462 36.2473 99.92 35.6085 98.3614 35.4978C96.7942 35.3786 95.2355 35.7278 93.7365 36.2814C92.5696 36.7158 91.4368 37.2694 90.2869 37.8741C89.7418 38.1637 89.0689 37.9252 88.8134 37.3631L88.5834 36.8521Z" fill="#000446"/>
<path d="M77.2639 36.3581C77.4939 35.7704 77.1702 35.1145 76.5655 34.9357C75.2794 34.5524 73.9506 34.1947 72.5794 33.9647C70.8077 33.6751 68.9254 33.6155 67.1368 34.118C65.3396 34.6035 63.8235 35.6511 62.5715 36.8521C61.3109 38.053 60.2718 39.4073 59.2412 40.77C60.4422 39.5691 61.6686 38.3767 63.0314 37.4057C64.3857 36.4347 65.8847 35.7193 67.4349 35.5234C68.9936 35.3189 70.5693 35.583 72.0939 36.06C73.2778 36.4347 74.4447 36.9287 75.6201 37.4653C76.1822 37.7208 76.838 37.4483 77.068 36.8776L77.2724 36.3581H77.2639Z" fill="#000446"/>
<path d="M125.345 93.5094C118.956 77.0113 120.856 58.2817 115.013 41.5792C111.947 32.8319 106.862 24.9448 101.436 17.4325C99.2729 14.4344 96.6921 11.2574 93.0467 10.6357C89.4098 10.0139 85.7048 13.4038 82.63 15.448C82.4682 13.6167 81.872 9.91169 82.2212 8.10601C82.5789 6.30033 84.1206 5.09086 85.7218 4.16247C87.1442 3.33629 88.8647 3.2852 90.5086 3.26816C94.7076 3.21706 99.1366 3.31076 102.765 5.43158C106.027 7.33094 108.208 10.6272 110.073 13.9148C116.955 26.0521 121.052 39.6202 123.326 53.3842C125.592 67.1483 125.37 79.5666 125.345 93.518V93.5094Z" fill="#000446"/>
<path d="M39.5233 93.5094C45.9113 77.0113 45.0425 58.9716 50.8939 42.2691C53.9602 33.5218 58.0144 24.9448 63.44 17.4325C65.6034 14.4344 68.1842 11.2574 71.8296 10.6356C75.4665 10.0139 79.9125 13.3271 82.9873 15.3713C83.1491 13.5401 82.8851 9.95426 82.5274 8.14007C82.1696 6.33439 80.7387 5.07383 79.146 4.15395C77.7236 3.32777 76.0031 3.27665 74.3592 3.25962C70.1602 3.20851 65.7311 3.30221 62.1028 5.42303C58.8406 7.3224 56.6602 10.6186 54.7949 13.9063C47.9129 26.0435 43.816 39.6117 41.5419 53.3757C39.2763 67.1397 39.4977 79.558 39.5233 93.5094Z" fill="#000446"/>
<g style="mix-blend-mode:color-burn">
<path d="M113.616 53.6568C110.175 51.8767 108.83 47.6521 110.61 44.2111C112.39 40.7701 116.614 39.4243 120.055 41.2044C123.496 42.9846 124.842 47.2092 123.062 50.6502C121.282 54.0912 117.057 55.4369 113.616 53.6568Z" fill="#E8E8E8"/>
</g>
<path d="M112.892 51.6211C109.451 49.841 108.105 45.6164 109.886 42.1754C111.666 38.7344 115.89 37.3886 119.331 39.1688C122.772 40.9489 124.118 45.1735 122.338 48.6145C120.558 52.0555 116.333 53.4013 112.892 51.6211Z" fill="#C7776E"/>
<g style="mix-blend-mode:color-burn">
<path d="M119.902 47.3539C120.788 45.6419 120.115 43.5381 118.403 42.6609C116.929 41.8943 115.158 42.2946 114.136 43.5211C115.788 44.424 116.427 46.4852 115.558 48.1716C115.439 48.4016 115.294 48.6145 115.132 48.8019C115.158 48.8189 115.183 48.8359 115.209 48.853C116.921 49.7388 119.025 49.0659 119.902 47.3539Z" fill="#919191"/>
</g>
<g style="mix-blend-mode:color-burn">
<path d="M51.0476 53.6568C54.4886 51.8767 55.8344 47.6521 54.0542 44.2111C52.2741 40.7701 48.0495 39.4243 44.6085 41.2044C41.1675 42.9846 39.8217 47.2092 41.6019 50.6502C43.382 54.0912 47.6066 55.4369 51.0476 53.6568Z" fill="#E8E8E8"/>
</g>
<path d="M51.7717 51.6211C55.2127 49.841 56.5585 45.6164 54.7784 42.1754C52.9982 38.7344 48.7736 37.3886 45.3326 39.1688C41.8916 40.9489 40.5459 45.1735 42.326 48.6145C44.1061 52.0555 48.3307 53.4013 51.7717 51.6211Z" fill="#C7776E"/>
<g style="mix-blend-mode:color-burn">
<path d="M44.7532 47.3539C43.8674 45.6419 44.5403 43.5381 46.2523 42.6609C47.7258 41.8943 49.4974 42.2946 50.5194 43.5211C48.8671 44.424 48.2283 46.4852 49.0971 48.1716C49.2163 48.4016 49.3611 48.6145 49.5229 48.8019C49.4974 48.8189 49.4718 48.8359 49.4463 48.853C47.7343 49.7388 45.6305 49.0659 44.7532 47.3539Z" fill="#919191"/>
</g>
<path d="M82.6382 15.4395C83.7625 13.8723 84.9975 12.3817 86.5562 11.1211C88.0978 9.88613 90.0909 8.80444 92.5183 8.7874C93.7107 8.77889 94.9458 9.08549 96.0615 9.62209C97.1858 10.1502 98.1227 10.9167 98.9574 11.7088C100.601 13.3186 101.777 15.1158 102.79 16.7341C106.955 23.3095 110.217 30.5833 112.372 38.2063C114.587 45.8123 115.686 53.776 115.694 61.6972C115.728 62.6852 115.668 63.6732 115.626 64.6697C115.575 65.6577 115.558 66.6457 115.473 67.6252C115.277 69.5927 115.115 71.5517 114.774 73.5022C114.604 74.4732 114.45 75.4442 114.263 76.4066C114.042 77.3691 113.837 78.323 113.59 79.277C113.164 81.1848 112.492 83.0416 111.861 84.8814C110.95 77.0625 110.243 69.6268 108.957 62.3189C107.73 55.0195 106.172 47.882 104.153 40.8808C102.186 33.871 99.741 27.023 96.9133 20.2517C96.2234 18.5142 95.559 16.9981 94.801 15.7546C94.0174 14.5281 93.2338 13.6678 92.0413 13.242C90.8659 12.7905 89.2817 12.9098 87.6464 13.3953C86.0111 13.8893 84.3331 14.6644 82.6467 15.4565L82.6382 15.4395Z" fill="#00066B"/>
<path d="M83.3281 15.9931C84.4524 14.5196 85.6874 13.1142 87.2461 11.9303C88.7877 10.7634 90.7808 9.74985 93.2082 9.73282C94.4007 9.73282 95.6357 10.0139 96.7514 10.5164C97.8757 11.0104 98.8126 11.7344 99.6473 12.4754C101.291 13.983 102.467 15.6779 103.48 17.194C107.645 23.3776 110.907 30.2085 113.062 37.3716C115.277 44.5262 116.375 52.0044 116.384 59.4486C116.418 60.377 116.358 61.3139 116.316 62.2423C116.265 63.1706 116.248 64.0991 116.162 65.0274C115.967 66.8757 115.805 68.724 115.464 70.5467C115.294 71.458 115.14 72.3694 114.953 73.2722C114.732 74.1751 114.527 75.0779 114.28 75.9637C113.854 77.7524 113.181 79.5069 112.551 81.2274C111.64 73.877 110.933 66.8927 109.647 60.0192C108.42 53.1543 106.862 46.4511 104.843 39.8757C102.875 33.2833 100.431 26.8527 97.6032 20.4902C96.9133 18.8549 96.2489 17.4325 95.4909 16.2656C94.7073 15.1158 93.9237 14.3066 92.7313 13.9063C91.5559 13.4804 89.9716 13.5912 88.3363 14.0426C86.701 14.511 85.0231 15.235 83.3281 15.9845V15.9931Z" fill="#000446"/>
<path d="M82.979 15.3713C81.2841 14.5877 79.6061 13.8212 77.9708 13.3271C76.3355 12.8502 74.7512 12.7309 73.5758 13.1823C72.3834 13.5997 71.5998 14.46 70.8162 15.6694C70.0582 16.8959 69.3938 18.4035 68.7039 20.1155C65.8847 26.8101 63.4402 33.5899 61.4642 40.523C59.4456 47.4476 57.8869 54.5085 56.6604 61.7312C55.3743 68.9625 54.6673 76.3215 53.756 84.0552C53.1172 82.241 52.4443 80.3927 52.027 78.5104C51.7885 77.5735 51.5755 76.6196 51.3541 75.6741C51.1667 74.7202 51.0134 73.7662 50.843 72.8038C50.4938 70.8789 50.3405 68.9454 50.1446 66.995C50.0594 66.024 50.0339 65.0445 49.9913 64.065C49.9487 63.0855 49.8891 62.106 49.9232 61.1265C49.9232 53.2905 51.0304 45.412 53.2449 37.8912C55.3998 30.3448 58.662 23.1562 62.827 16.6489C63.8405 15.0476 65.0159 13.2675 66.6598 11.6833C67.4945 10.8997 68.4314 10.1416 69.5557 9.61357C70.6714 9.07697 71.9065 8.77889 73.0989 8.78741C75.5263 8.80444 77.5109 9.8691 79.061 11.0956C80.6197 12.3391 81.8547 13.8211 82.979 15.3713Z" fill="#00066B"/>
<path d="M82.4341 15.9931C80.7391 15.2435 79.0612 14.5196 77.4259 14.0511C75.7905 13.5997 74.2063 13.489 73.0309 13.9148C71.8385 14.3151 71.0549 15.1243 70.2713 16.2741C69.5133 17.441 68.8489 18.8719 68.159 20.4988C65.3398 26.8612 62.8953 33.3003 60.9193 39.8842C58.9006 46.4596 57.342 53.1713 56.1155 60.0277C54.8294 66.9012 54.1224 73.8855 53.2111 81.236C52.5723 79.5069 51.8994 77.7609 51.482 75.9722C51.2436 75.0779 51.0306 74.1836 50.8092 73.2807C50.6218 72.3779 50.4685 71.4666 50.2981 70.5552C49.9489 68.7325 49.7956 66.8842 49.5997 65.0359C49.5145 64.1076 49.4975 63.1877 49.4464 62.2508C49.4038 61.3224 49.3442 60.3855 49.3783 59.4571C49.3783 52.0129 50.4855 44.5347 52.7 37.3801C54.8549 30.217 58.1171 23.3776 62.282 17.2025C63.2956 15.6779 64.471 13.9915 66.1148 12.4839C66.9495 11.7429 67.8864 11.0189 69.0107 10.5249C70.1265 10.0139 71.3615 9.73282 72.554 9.74134C74.9814 9.75837 76.9659 10.7719 78.5161 11.9388C80.0748 13.1227 81.3098 14.5281 82.4341 16.0016V15.9931Z" fill="#000446"/>
<path d="M83.0303 12.5265C83.5413 10.9423 84.7082 9.60507 86.0113 8.56595C86.6757 8.04639 87.3486 7.56942 88.0725 7.15207C88.788 6.71768 89.5545 6.34292 90.3637 6.06185C91.1814 5.79781 92.0246 5.61043 92.9445 5.68708C93.8047 5.78929 94.6139 6.00222 95.406 6.26626C96.1896 6.53881 96.9646 6.85396 97.6886 7.25427C98.4041 7.6631 99.1621 8.08899 99.622 8.78741C99.0514 8.19971 98.2848 7.87604 97.5438 7.57794C96.7858 7.29686 96.0192 7.04986 95.2356 6.86248C94.4605 6.6751 93.6599 6.51326 92.8934 6.47919C92.1779 6.42809 91.3943 6.68361 90.6788 6.93061C89.2309 7.48424 87.8426 8.34449 86.5053 9.22178C85.1852 10.1161 83.9416 11.1382 83.0388 12.5265H83.0303Z" fill="#00066B"/>
<path d="M83.4988 6.58139C84.3931 5.13344 85.9007 4.10284 87.4508 3.41293C89.0095 2.74006 90.6363 2.17792 92.4079 2.05868C93.2767 2.00758 94.2051 2.1098 95.0313 2.39087C95.8489 2.65491 96.6325 2.97857 97.3991 3.35333C98.1571 3.7281 98.9066 4.1284 99.5965 4.62241C100.269 5.11642 101.019 5.63599 101.326 6.44513C100.891 5.72968 100.125 5.32084 99.4092 4.92052C98.6767 4.54576 97.9186 4.20507 97.1436 3.91548C96.3685 3.62589 95.5934 3.3448 94.8013 3.1489C94.0262 2.92745 93.2597 2.91041 92.459 2.98707C90.8833 3.13186 89.2991 3.65994 87.7489 4.18802C86.2158 4.74164 84.7252 5.44008 83.4902 6.59844L83.4988 6.58139Z" fill="#00066B"/>
<path d="M80.9519 11.1893C79.9895 9.84352 78.7118 8.87255 77.3491 8.02934C75.9778 7.21167 74.5554 6.41103 73.0819 5.91703C72.3494 5.69557 71.5573 5.47414 70.8503 5.55931C70.0838 5.61893 69.3002 5.82335 68.5251 6.03628C67.75 6.25773 66.992 6.53027 66.2424 6.84541C65.5099 7.17759 64.7604 7.52682 64.2153 8.14007C64.6412 7.41609 65.3822 6.96466 66.0806 6.53028C66.7876 6.09589 67.5456 5.75521 68.3207 5.44858C69.1043 5.15047 69.8964 4.90348 70.7566 4.7672C71.6765 4.64796 72.5197 4.80127 73.3544 5.03124C74.1806 5.26973 74.9557 5.61894 75.6882 6.01926C76.4292 6.41105 77.1191 6.86247 77.8005 7.34796C79.1462 8.32745 80.3727 9.61357 80.9434 11.1808L80.9519 11.1893Z" fill="#00066B"/>
<path d="M82.2295 7.68865C81.1223 6.41105 79.7169 5.55932 78.2519 4.84386C76.7699 4.15396 75.2453 3.46404 73.6951 3.15742C72.903 2.99559 72.145 2.93596 71.3529 3.07224C70.5522 3.18297 69.7431 3.37887 68.9425 3.58329C68.1418 3.79622 67.3583 4.04322 66.5832 4.34984C65.8337 4.6735 65.033 4.98865 64.522 5.66152C64.9138 4.89496 65.7229 4.45205 66.4384 4.0347C67.1794 3.62587 67.963 3.2937 68.7636 3.00411C69.5643 2.71452 70.3734 2.47602 71.2166 2.29716C72.0684 2.10978 73.0052 2.10978 73.857 2.24606C75.603 2.55268 77.1617 3.27667 78.6352 4.11988C80.1002 4.97162 81.4885 6.15553 82.2295 7.68865Z" fill="#00066B"/>
<path d="M70.1945 119.368L-5.55029 143.055L44.3614 180.378C62.614 193.214 110.482 196.748 128.768 183.955L166.696 141.079L94.3156 121.48L70.1859 119.368H70.1945Z" fill="#FCE096"/>
<path d="M106.81 126.242H59.8457V108.551L83.1747 121.216L106.81 108.551V126.242Z" fill="#FCE096"/>
<path d="M79.4953 125.739C79.7338 127.587 81.4202 128.899 83.277 128.661C85.1252 128.422 86.4369 126.736 86.1984 124.887C85.9599 123.039 84.2735 121.727 82.4167 121.966C80.5685 122.204 79.2568 123.891 79.4953 125.739Z" fill="white"/>
<g style="mix-blend-mode:color-burn">
<path d="M81.565 127.749C83.4133 127.511 84.7249 125.824 84.4864 123.968C84.3842 123.167 84.001 122.477 83.4558 121.957C84.8612 122.221 86.0025 123.346 86.1899 124.836C86.4284 126.685 85.1167 128.379 83.2685 128.618C82.2208 128.754 81.2328 128.379 80.5259 127.698C80.8581 127.758 81.2073 127.792 81.565 127.741V127.749Z" fill="#E8E8E8"/>
</g>
<path d="M79.4953 139.75C79.7338 141.598 81.4202 142.91 83.277 142.672C85.1252 142.433 86.4369 140.747 86.1984 138.89C85.9599 137.042 84.2735 135.73 82.4167 135.968C80.5685 136.207 79.2568 137.893 79.4953 139.75Z" fill="white"/>
<g style="mix-blend-mode:color-burn">
<path d="M81.565 141.76C83.4133 141.522 84.7249 139.835 84.4864 137.987C84.3842 137.186 84.001 136.496 83.4558 135.977C84.8612 136.241 86.0025 137.365 86.1899 138.856C86.4284 140.704 85.1167 142.399 83.2685 142.629C82.2208 142.765 81.2328 142.391 80.5259 141.709C80.8581 141.769 81.2073 141.803 81.565 141.752V141.76Z" fill="#E8E8E8"/>
</g>
<path d="M79.4953 153.753C79.7338 155.601 81.4202 156.913 83.277 156.674C85.1252 156.436 86.4369 154.749 86.1984 152.901C85.9599 151.053 84.2735 149.741 82.4167 149.979C80.5685 150.218 79.2568 151.904 79.4953 153.753Z" fill="white"/>
<g style="mix-blend-mode:color-burn">
<path d="M81.565 155.771C83.4133 155.533 84.7249 153.846 84.4864 151.99C84.3842 151.189 84.001 150.499 83.4558 149.979C84.8612 150.243 86.0025 151.368 86.1899 152.858C86.4284 154.707 85.1167 156.402 83.2685 156.631C82.2208 156.768 81.2328 156.393 80.5259 155.712C80.8581 155.771 81.2073 155.805 81.565 155.754V155.771Z" fill="#E8E8E8"/>
</g>
<path d="M79.4953 167.764C79.7338 169.612 81.4202 170.924 83.277 170.685C85.1252 170.447 86.4369 168.76 86.1984 166.903C85.9599 165.055 84.2735 163.744 82.4167 163.982C80.5685 164.221 79.2568 165.907 79.4953 167.764Z" fill="white"/>
<g style="mix-blend-mode:color-burn">
<path d="M81.565 169.782C83.4133 169.544 84.7249 167.857 84.4864 166.001C84.3842 165.2 84.001 164.51 83.4558 163.991C84.8612 164.255 86.0025 165.379 86.1899 166.869C86.4284 168.718 85.1167 170.413 83.2685 170.651C82.2208 170.787 81.2328 170.413 80.5259 169.731C80.8581 169.791 81.2073 169.825 81.565 169.774V169.782Z" fill="#E8E8E8"/>
</g>
<path d="M85.4321 52.3621C84.4952 51.2463 84.5122 49.8495 84.5633 48.4697C84.6229 46.9195 84.6229 45.0713 85.4746 43.717C83.5838 43.717 81.6929 43.717 79.8021 43.717C80.2876 43.717 80.6538 49.4236 80.6453 49.7132C80.6283 51.5274 79.8106 52.8136 78.1327 53.5035C76.3611 54.2274 74.1636 56.3227 76.0119 58.188C76.5484 58.7331 77.2809 59.0482 78.0134 59.2952C80.3557 60.0703 82.8939 60.2066 85.3298 59.7892C86.5734 59.5763 87.8084 59.2101 88.8475 58.5116C89.2563 58.2391 89.6396 57.8984 89.8355 57.447C90.1847 56.6463 89.8355 55.6839 89.2308 55.0451C88.6261 54.4063 87.8169 54.023 87.0504 53.6142C86.386 53.2564 85.8494 52.8476 85.4406 52.3706L85.4321 52.3621Z" fill="url(#paint1_linear_1064_3653)"/>
<path d="M77.7581 46.0423C77.7581 46.0423 73.3376 50.795 68.636 50.2499C63.9345 49.7047 60.7319 44.0577 60.7319 44.0577C60.7319 44.0577 65.1524 39.305 69.854 39.8502C74.5556 40.3953 77.7581 46.0423 77.7581 46.0423Z" fill="#000446"/>
<path d="M78.8314 46.3829C78.8314 46.3829 74.4108 51.1356 69.7093 50.5905C65.0077 50.0369 61.8052 44.3899 61.8052 44.3899C61.8052 44.3899 63.7727 42.2691 66.4812 41.0255C67.827 40.4038 69.3516 40.0035 70.9187 40.1823C72.3326 40.3441 73.6102 40.9744 74.709 41.7751C77.2556 43.6063 78.8228 46.3659 78.8228 46.3659L78.8314 46.3829Z" fill="white"/>
<path d="M72.7073 43.6659C73.1587 43.7255 74.4022 42.3542 74.8281 42.1072C74.8451 42.0987 74.8536 42.0987 74.8706 42.0902C74.8195 41.988 74.7684 41.8858 74.7088 41.7836C73.6101 40.9829 72.3325 40.3527 70.9186 40.1908C69.3514 40.012 67.8268 40.4123 66.4811 41.034C65.6464 41.9539 65.1523 43.1463 65.1523 44.4836C65.1523 47.3283 67.4606 49.6366 70.3054 49.6366C73.1501 49.6366 75.4754 47.3283 75.4754 44.4836C75.4754 44.3728 75.4584 44.2621 75.4498 44.1514C74.5385 43.9555 73.6271 43.7851 72.7073 43.6744V43.6659Z" fill="url(#paint2_linear_1064_3653)"/>
<path d="M87.0588 46.0423C87.0588 46.0423 91.4793 50.795 96.1724 50.2499C100.874 49.7047 104.076 44.0577 104.076 44.0577C104.076 44.0577 99.656 39.305 94.9544 39.8502C90.2528 40.3953 87.0503 46.0423 87.0503 46.0423H87.0588Z" fill="#000446"/>
<path d="M85.9858 46.3829C85.9858 46.3829 90.4063 51.1356 95.1079 50.5905C99.8095 50.0369 103.012 44.3899 103.012 44.3899C103.012 44.3899 101.045 42.2691 98.336 41.0255C96.9903 40.4038 95.4656 40.0035 93.8984 40.1823C92.4846 40.3441 91.207 40.9744 90.1082 41.7751C87.5615 43.6063 85.9943 46.3659 85.9943 46.3659L85.9858 46.3829Z" fill="white"/>
<path d="M92.1099 43.6659C91.6585 43.7255 90.415 42.3542 89.9891 42.1072C89.9721 42.0987 89.9636 42.0987 89.9465 42.0902C89.9976 41.988 90.0487 41.8858 90.1084 41.7836C91.2071 40.9829 92.4847 40.3527 93.8986 40.1908C95.4657 40.012 96.9904 40.4123 98.3361 41.034C99.1708 41.9539 99.6648 43.1463 99.6648 44.4836C99.6648 47.3283 97.3566 49.6366 94.5118 49.6366C91.667 49.6366 89.3418 47.3283 89.3418 44.4836C89.3418 44.3728 89.3588 44.2621 89.3673 44.1514C90.2787 43.9555 91.1901 43.7851 92.1099 43.6744V43.6659Z" fill="url(#paint3_linear_1064_3653)"/>
<path d="M78.8822 68.0511C79.6999 66.8246 81.0031 65.8366 82.468 65.7514C83.2176 65.7088 84.0267 65.8962 84.6911 65.5385C85.5172 65.0956 85.7642 63.9968 86.4882 63.4006C87.5273 62.5489 89.1116 63.0259 90.2444 63.7498C91.3857 64.4653 92.493 65.4277 93.8387 65.4618C92.4504 68.3492 89.9974 70.7 87.0589 71.9691C84.7762 72.9486 81.727 73.5107 79.2826 72.8378C76.6848 72.1224 77.6728 69.8397 78.8737 68.0511H78.8822Z" fill="url(#paint4_linear_1064_3653)"/>
<path d="M93.106 66.0239C93.3359 65.9643 93.6 65.9132 93.8129 66.0239C94.0514 66.1432 94.1621 66.4157 94.2388 66.6713C94.7498 68.4599 94.3836 70.4444 93.4296 72.0457C92.4757 73.647 90.9851 74.8905 89.3242 75.7252C87.5782 76.6025 85.5936 77.0709 83.6517 76.8154C81.9993 76.594 76.4801 74.2602 78.8735 71.9946C79.9722 70.9555 81.7523 70.2826 83.1066 69.6268C84.5886 68.9113 86.1132 68.264 87.6634 67.6933C89.4435 67.0375 91.2662 66.4839 93.1145 66.0325L93.106 66.0239Z" fill="url(#paint5_linear_1064_3653)"/>
<path d="M84.2824 68.9369C86.3691 68.264 88.5581 67.8807 90.5596 66.9949C92.5612 66.1091 94.4435 64.5845 95.0312 62.4722C95.6104 63.7328 95.0568 65.2915 94.0602 66.2624C93.0637 67.2334 91.7095 67.7274 90.3808 68.1533C86.7098 69.3202 83.0984 70.5467 79.4956 71.8328C80.424 70.3082 82.6555 69.465 84.2738 68.9369H84.2824Z" fill="#C7776E"/>
<g style="mix-blend-mode:color-burn">
<path d="M84.2824 68.9369C86.3691 68.264 88.5581 67.8807 90.5596 66.9949C92.5612 66.1091 94.4435 64.5845 95.0312 62.4722C95.6104 63.7328 95.0568 65.2915 94.0602 66.2624C93.0637 67.2334 91.7095 67.7274 90.3808 68.1533C86.7098 69.3202 83.0984 70.5467 79.4956 71.8328C80.424 70.3082 82.6555 69.465 84.2738 68.9369H84.2824Z" fill="#919191"/>
</g>
</g>
</g>
<defs>
<linearGradient id="paint0_linear_1064_3653" x1="82.153" y1="62.3274" x2="83.5158" y2="136.181" gradientUnits="userSpaceOnUse">
<stop stop-color="#964138"/>
<stop offset="1" stop-color="#C7776E"/>
</linearGradient>
<linearGradient id="paint1_linear_1064_3653" x1="82.7491" y1="64.0479" x2="82.5021" y2="48.4271" gradientUnits="userSpaceOnUse">
<stop stop-color="#964138"/>
<stop offset="1" stop-color="#C7776E"/>
</linearGradient>
<linearGradient id="paint2_linear_1064_3653" x1="71.8044" y1="42.6012" x2="60.5615" y2="56.8082" gradientUnits="userSpaceOnUse">
<stop stop-color="#2EBAC4"/>
<stop offset="0.19" stop-color="#2F98B0"/>
<stop offset="0.39" stop-color="#317D9F"/>
<stop offset="0.59" stop-color="#326993"/>
<stop offset="0.79" stop-color="#325D8C"/>
<stop offset="1" stop-color="#335A8A"/>
</linearGradient>
<linearGradient id="paint3_linear_1064_3653" x1="93.0043" y1="42.6012" x2="104.247" y2="56.8082" gradientUnits="userSpaceOnUse">
<stop stop-color="#2EBAC4"/>
<stop offset="0.19" stop-color="#2F98B0"/>
<stop offset="0.39" stop-color="#317D9F"/>
<stop offset="0.59" stop-color="#326993"/>
<stop offset="0.79" stop-color="#325D8C"/>
<stop offset="1" stop-color="#335A8A"/>
</linearGradient>
<linearGradient id="paint4_linear_1064_3653" x1="84.7337" y1="65.9814" x2="89.6056" y2="77.7012" gradientUnits="userSpaceOnUse">
<stop stop-color="#964138"/>
<stop offset="0.07" stop-color="#A55148"/>
<stop offset="0.18" stop-color="#B46259"/>
<stop offset="0.31" stop-color="#BF6E65"/>
<stop offset="0.49" stop-color="#C5756C"/>
<stop offset="1" stop-color="#C7776E"/>
</linearGradient>
<linearGradient id="paint5_linear_1064_3653" x1="91.4195" y1="72.9571" x2="78.8224" y2="66.6883" gradientUnits="userSpaceOnUse">
<stop stop-color="#964138"/>
<stop offset="0.07" stop-color="#A55148"/>
<stop offset="0.18" stop-color="#B46259"/>
<stop offset="0.31" stop-color="#BF6E65"/>
<stop offset="0.49" stop-color="#C5756C"/>
<stop offset="1" stop-color="#C7776E"/>
</linearGradient>
</defs>
</svg>
